<?xml version="1.0" encoding="UTF-8" standalone="no"?>
<svg
   xmlns:dc="http://purl.org/dc/elements/1.1/"
   xmlns:cc="http://creativecommons.org/ns#"
   xmlns:rdf="http://www.w3.org/1999/02/22-rdf-syntax-ns#"
   xmlns:svg="http://www.w3.org/2000/svg"
   xmlns="http://www.w3.org/2000/svg"
   xmlns:xlink="http://www.w3.org/1999/xlink"
   xmlns:sodipodi="http://sodipodi.sourceforge.net/DTD/sodipodi-0.dtd"
   xmlns:inkscape="http://www.inkscape.org/namespaces/inkscape"
   width="210mm"
   height="297mm"
   viewBox="0 0 210 297"
   version="1.1"
   id="svg19502"
   inkscape:version="1.0.2 (e86c870879, 2021-01-15)"
   sodipodi:docname="021.svg"
   inkscape:export-filename="/home/spcmd/Projects/Morphy-Staunton_Comic/_TEMPLATE.png"
   inkscape:export-xdpi="300"
   inkscape:export-ydpi="300">
  <title
     id="title43151">The Challenge: An illustrated story of Paul Morphy and Howard Staunton</title>
  <defs
     id="defs19496">
    <pattern
       patternTransform="matrix(10.995775,8.6493374,-6.9781797,6.3090477,-19.325051,-80.075558)"
       id="pattern20617"
       xlink:href="#Checkerboard" />
    <pattern
       patternUnits="userSpaceOnUse"
       width="2"
       height="2"
       patternTransform="translate(0,0) scale(10,10)"
       id="Checkerboard">
      <rect
         style="fill:black;stroke:none"
         x="0"
         y="0"
         width="1"
         height="1"
         id="rect1884" />
      <rect
         style="fill:black;stroke:none"
         x="1"
         y="1"
         width="1"
         height="1"
         id="rect1886" />
    </pattern>
    <linearGradient
       xlink:href="#SvgjsLinearGradient3371"
       id="linearGradient14041-0"
       gradientUnits="userSpaceOnUse"
       gradientTransform="translate(-52)"
       x1="127.212"
       y1="82.295998"
       x2="126.463"
       y2="83.189003" />
    <linearGradient
       id="SvgjsLinearGradient3371"
       x1="127.212"
       y1="82.295998"
       x2="126.463"
       y2="83.189003"
       gradientTransform="translate(-52)"
       gradientUnits="userSpaceOnUse"
       class="svga-on-canvas-eyesiris-gradient-left-6">
      <stop
         id="SvgjsStop3372"
         stop-opacity="1"
         stop-color="#ffffff"
         offset="0" />
      <stop
         id="SvgjsStop3373"
         stop-opacity="0"
         stop-color="#ffffff"
         offset="1" />
    </linearGradient>
    <linearGradient
       y2="83.189003"
       x2="126.463"
       y1="82.295998"
       x1="127.212"
       gradientUnits="userSpaceOnUse"
       id="linearGradient9203-3-9-3-7"
       xlink:href="#SvgjsLinearGradient3394" />
    <linearGradient
       id="SvgjsLinearGradient3394"
       x1="127.212"
       y1="82.295998"
       x2="126.463"
       y2="83.189003"
       gradientUnits="userSpaceOnUse"
       class="svga-on-canvas-eyesiris-gradient-right-6">
      <stop
         id="SvgjsStop3395"
         stop-opacity="1"
         stop-color="#ffffff"
         offset="0" />
      <stop
         id="SvgjsStop3396"
         stop-opacity="0"
         stop-color="#ffffff"
         offset="1" />
    </linearGradient>
    <pattern
       patternTransform="matrix(10.995775,8.6493374,-6.9781797,6.3090477,-19.325051,-80.075558)"
       id="pattern20617-3"
       xlink:href="#Checkerboard-6" />
    <pattern
       patternUnits="userSpaceOnUse"
       width="2"
       height="2"
       patternTransform="translate(0,0) scale(10,10)"
       id="Checkerboard-6">
      <rect
         style="fill:black;stroke:none"
         x="0"
         y="0"
         width="1"
         height="1"
         id="rect1884-7" />
      <rect
         style="fill:black;stroke:none"
         x="1"
         y="1"
         width="1"
         height="1"
         id="rect1886-5" />
    </pattern>
    <linearGradient
       xlink:href="#SvgjsLinearGradient3371"
       id="linearGradient14041-0-3"
       gradientUnits="userSpaceOnUse"
       gradientTransform="translate(-52)"
       x1="127.212"
       y1="82.295998"
       x2="126.463"
       y2="83.189003" />
    <linearGradient
       y2="83.189003"
       x2="126.463"
       y1="82.295998"
       x1="127.212"
       gradientUnits="userSpaceOnUse"
       id="linearGradient9203-3-9-3-7-2"
       xlink:href="#SvgjsLinearGradient3394" />
    <rect
       y="3.7521408"
       x="1101.7798"
       height="97.981018"
       width="199.84012"
       id="rect14213-1-6-2-4-4-1-2-5"
       style="fill:#ffffff;stroke:#000000;stroke-width:0.853742" />
    <rect
       y="3.7521408"
       x="1101.7798"
       height="97.981018"
       width="199.84012"
       id="rect28243"
       style="fill:#ffffff;stroke:#000000;stroke-width:0.853742" />
    <rect
       style="fill:#ffffff;stroke:#000000;stroke-width:0.853742"
       id="rect14213-1-6-2-9-0-7-9"
       width="90.843178"
       height="11.416029"
       x="1101.7798"
       y="3.7521408" />
    <rect
       style="fill:#ffffff;stroke:#000000;stroke-width:0.853742"
       id="rect28246"
       width="90.843178"
       height="11.416029"
       x="1101.7798"
       y="3.7521408" />
    <rect
       y="3.7521408"
       x="1101.7798"
       height="11.416029"
       width="90.843178"
       id="rect14213-1-6-2-9-0-7-9-7"
       style="fill:#ffffff;stroke:#000000;stroke-width:0.853742" />
    <rect
       y="3.7521408"
       x="1101.7798"
       height="11.416029"
       width="90.843178"
       id="rect28249"
       style="fill:#ffffff;stroke:#000000;stroke-width:0.853742" />
    <rect
       style="fill:#ffffff;stroke:#000000;stroke-width:0.853742"
       id="rect14213-1-6-2-9-0-7-9-1-8"
       width="11.227488"
       height="12.016135"
       x="1101.7798"
       y="3.7521408" />
    <rect
       style="fill:#ffffff;stroke:#000000;stroke-width:0.853742"
       id="rect28252"
       width="11.227488"
       height="12.016135"
       x="1101.7798"
       y="3.7521408" />
    <rect
       y="3.7521408"
       x="1101.7798"
       height="12.016135"
       width="11.227488"
       id="rect14213-1-6-2-9-0-7-9-1-8-3"
       style="fill:#ffffff;stroke:#000000;stroke-width:0.853742" />
    <rect
       y="3.7521408"
       x="1101.7798"
       height="12.016135"
       width="11.227488"
       id="rect28255"
       style="fill:#ffffff;stroke:#000000;stroke-width:0.853742" />
    <rect
       style="fill:#ffffff;stroke:#000000;stroke-width:0.853742"
       id="rect14213-1-6-2-9-0-7-9-1-8-3-8"
       width="11.227488"
       height="12.016135"
       x="1101.7798"
       y="3.7521408" />
    <rect
       style="fill:#ffffff;stroke:#000000;stroke-width:0.853742"
       id="rect28258"
       width="11.227488"
       height="12.016135"
       x="1101.7798"
       y="3.7521408" />
    <rect
       style="fill:#ffffff;stroke:#000000;stroke-width:0.853742"
       id="rect14213-1-6-2-9-0-7-9-1-8-3-6"
       width="11.227488"
       height="12.016135"
       x="1101.7798"
       y="3.7521408" />
    <rect
       style="fill:#ffffff;stroke:#000000;stroke-width:0.853742"
       id="rect28261"
       width="11.227488"
       height="12.016135"
       x="1101.7798"
       y="3.7521408" />
    <rect
       y="3.7521408"
       x="1101.7798"
       height="12.016135"
       width="11.227488"
       id="rect14213-1-6-2-9-0-7-9-1-8-33"
       style="fill:#ffffff;stroke:#000000;stroke-width:0.853742" />
    <rect
       y="3.7521408"
       x="1101.7798"
       height="12.016135"
       width="11.227488"
       id="rect28264"
       style="fill:#ffffff;stroke:#000000;stroke-width:0.853742" />
    <rect
       style="fill:#ffffff;stroke:#000000;stroke-width:0.853742"
       id="rect14213-1-6-2-9-0-7-9-1-8-33-6"
       width="11.227488"
       height="12.016135"
       x="1101.7798"
       y="3.7521408" />
    <rect
       style="fill:#ffffff;stroke:#000000;stroke-width:0.853742"
       id="rect28267"
       width="11.227488"
       height="12.016135"
       x="1101.7798"
       y="3.7521408" />
    <rect
       y="3.7521408"
       x="1101.7798"
       height="12.016135"
       width="11.227488"
       id="rect14213-1-6-2-9-0-7-9-1-8-33-6-4"
       style="fill:#ffffff;stroke:#000000;stroke-width:0.853742" />
    <rect
       y="3.7521408"
       x="1101.7798"
       height="12.016135"
       width="11.227488"
       id="rect28270"
       style="fill:#ffffff;stroke:#000000;stroke-width:0.853742" />
    <rect
       style="fill:#ffffff;stroke:#000000;stroke-width:0.853742"
       id="rect14213-1-6-2-9-0-7-9-1-8-33-6-4-8"
       width="11.227488"
       height="12.016135"
       x="1101.7798"
       y="3.7521408" />
    <rect
       style="fill:#ffffff;stroke:#000000;stroke-width:0.853742"
       id="rect28273"
       width="11.227488"
       height="12.016135"
       x="1101.7798"
       y="3.7521408" />
    <rect
       style="fill:#ffffff;stroke:#000000;stroke-width:0.853742"
       id="rect14213-1-6-2-4-4-1-2-5-3"
       width="74.995674"
       height="87.702873"
       x="1101.7798"
       y="3.7521408" />
    <rect
       style="fill:#ffffff;stroke:#000000;stroke-width:0.853742"
       id="rect28276"
       width="74.995674"
       height="87.702873"
       x="1101.7798"
       y="3.7521408" />
    <rect
       style="fill:#ffffff;stroke:#000000;stroke-width:0.853742"
       id="rect28278"
       width="74.995674"
       height="87.702873"
       x="1101.7798"
       y="3.7521408" />
    <rect
       style="fill:#ffffff;stroke:#000000;stroke-width:0.853742"
       id="rect28280"
       width="74.995674"
       height="87.702873"
       x="1101.7798"
       y="3.7521408" />
    <pattern
       patternTransform="matrix(10.995775,8.6493374,-6.9781797,6.3090477,-19.325051,-80.075558)"
       id="pattern20617-3-3"
       xlink:href="#Checkerboard-6-6" />
    <pattern
       patternUnits="userSpaceOnUse"
       width="2"
       height="2"
       patternTransform="translate(0,0) scale(10,10)"
       id="Checkerboard-6-6">
      <rect
         style="fill:black;stroke:none"
         x="0"
         y="0"
         width="1"
         height="1"
         id="rect1884-7-7" />
      <rect
         style="fill:black;stroke:none"
         x="1"
         y="1"
         width="1"
         height="1"
         id="rect1886-5-5" />
    </pattern>
    <linearGradient
       y2="131"
       x2="100"
       y1="171"
       x1="100"
       gradientTransform="matrix(2.0862461,0,0,2.0862461,306.57994,-1853.8039)"
       gradientUnits="userSpaceOnUse"
       id="linearGradient18225"
       xlink:href="#SvgjsLinearGradient4157" />
    <linearGradient
       gradientTransform="matrix(2.0862461,0,0,2.0862461,306.57994,-1853.8039)"
       id="SvgjsLinearGradient4157"
       x1="100"
       y1="171"
       x2="100"
       y2="131"
       gradientUnits="userSpaceOnUse"
       class="svga-on-canvas-chinshadow-gradient-single-0">
      <stop
         id="SvgjsStop4158"
         stop-opacity="0.8"
         stop-color="#f0d8d8"
         offset="0" />
      <stop
         id="SvgjsStop4159"
         stop-opacity="1"
         stop-color="#d19292"
         offset="0.7" />
    </linearGradient>
    <rect
       style="fill:#ffffff;stroke:#000000;stroke-width:0.853742"
       id="rect14213-1-6-2"
       width="199.28552"
       height="293.33826"
       x="1101.7798"
       y="3.7521408" />
    <rect
       style="fill:#ffffff;stroke:#000000;stroke-width:0.853742"
       id="rect22157"
       width="199.28552"
       height="293.33826"
       x="1101.7798"
       y="3.7521408" />
    <rect
       y="38.494831"
       x="1521.2491"
       height="439.63793"
       width="181.82201"
       id="rect14213-1-0-12-4-8-4-9-8"
       style="fill:#ffffff;stroke:#000000;stroke-width:0.74602;stroke-miterlimit:4;stroke-dasharray:none" />
    <rect
       y="38.494831"
       x="1521.2491"
       height="235.87962"
       width="177.14899"
       id="rect22168"
       style="fill:#ffffff;stroke:#000000;stroke-width:0.74602;stroke-miterlimit:4;stroke-dasharray:none" />
  </defs>
  <sodipodi:namedview
     id="base"
     pagecolor="#ffffff"
     bordercolor="#0000d8"
     borderopacity="1"
     inkscape:pageopacity="0.0"
     inkscape:pageshadow="2"
     inkscape:zoom="1.4"
     inkscape:cx="393.72476"
     inkscape:cy="232.18147"
     inkscape:document-units="mm"
     inkscape:current-layer="layer1"
     inkscape:document-rotation="0"
     showgrid="false"
     inkscape:pagecheckerboard="true"
     borderlayer="false"
     inkscape:showpageshadow="false"
     inkscape:snap-global="true"
     inkscape:snap-bbox="true"
     inkscape:snap-page="true"
     inkscape:window-width="1678"
     inkscape:window-height="1026"
     inkscape:window-x="0"
     inkscape:window-y="22"
     inkscape:window-maximized="1"
     showguides="true"
     inkscape:guide-bbox="true"
     inkscape:bbox-paths="true"
     inkscape:bbox-nodes="true"
     inkscape:snap-bbox-edge-midpoints="true">
    <sodipodi:guide
       position="12.5,280.74703"
       orientation="-1,0"
       id="guide30126"
       inkscape:label=""
       inkscape:locked="false"
       inkscape:color="rgb(0,0,255)" />
    <sodipodi:guide
       position="197.5,243.70536"
       orientation="-1,0"
       id="guide30128"
       inkscape:label=""
       inkscape:locked="false"
       inkscape:color="rgb(0,0,255)" />
    <sodipodi:guide
       position="-38.931547,284.5"
       orientation="0,1"
       id="guide30130"
       inkscape:label=""
       inkscape:locked="false"
       inkscape:color="rgb(0,0,255)" />
    <sodipodi:guide
       position="0,297"
       orientation="0,793.70079"
       id="guide30134" />
    <sodipodi:guide
       position="210,297"
       orientation="1122.5197,0"
       id="guide30136" />
    <sodipodi:guide
       position="210,0"
       orientation="0,-793.70079"
       id="guide30138" />
    <sodipodi:guide
       position="0,0"
       orientation="-1122.5197,0"
       id="guide30140" />
    <sodipodi:guide
       position="-63.122022,12.5"
       orientation="0,1"
       id="guide30142"
       inkscape:label=""
       inkscape:locked="false"
       inkscape:color="rgb(0,0,255)" />
  </sodipodi:namedview>
  <metadata
     id="metadata19499">
    <rdf:RDF>
      <cc:Work
         rdf:about="">
        <dc:format>image/svg+xml</dc:format>
        <dc:type
           rdf:resource="http://purl.org/dc/dcmitype/StillImage" />
        <dc:title>The Challenge: An illustrated story of Paul Morphy and Howard Staunton</dc:title>
        <dc:creator>
          <cc:Agent>
            <dc:title>Ka (https://github.com/Ka-hu)</dc:title>
          </cc:Agent>
        </dc:creator>
        <cc:license
           rdf:resource="" />
        <dc:language>English</dc:language>
        <dc:date>2021</dc:date>
      </cc:Work>
    </rdf:RDF>
  </metadata>
  <g
     inkscape:label="Layer 1"
     inkscape:groupmode="layer"
     id="layer1">
    <rect
       y="0.43934786"
       x="0.43934721"
       height="296.12131"
       width="209.12131"
       id="rect14213-8"
       style="fill:#ffffff;stroke:#000000;stroke-width:0.878694" />
    <g
       id="g155800"
       style="fill:#ececec"
       transform="translate(0.07904997,-0.07544962)">
      <path
         id="text155759"
         style="font-size:59.0047px;line-height:61.4634px;font-family:Lora;-inkscape-font-specification:Lora;letter-spacing:0px;word-spacing:0px;fill:#ececec;stroke:none;stroke-width:1.22926px;stroke-linecap:butt;stroke-linejoin:miter;stroke-opacity:1"
         d="m 24.212831,190.26808 c -1.43027,0.99002 -2.698842,2.14927 -3.80597,3.47782 -1.77014,2.12417 -3.126994,4.50408 -4.071069,7.13962 -0.944075,2.63554 -1.495266,5.34977 -1.652612,8.14266 -0.157346,2.95023 0.157399,5.70412 0.944128,8.26099 0.826066,2.51753 2.065471,4.73981 3.717603,6.66729 1.652131,1.88815 3.658049,3.3635 6.018237,4.42559 2.360188,1.06206 5.015688,1.59316 7.965922,1.59316 1.612794,0 3.382782,-0.23643 5.310269,-0.70848 1.966825,-0.4327 3.972743,-1.25846 6.018239,-2.47787 2.045497,-1.21944 3.973116,-2.96986 5.782593,-5.25137 l -1.474845,-1.2392 c -1.691468,2.16351 -3.796295,3.81553 -6.313827,4.95629 -2.517534,1.10142 -5.054552,1.6521 -7.611422,1.6521 -2.910898,0 -5.526733,-0.78661 -7.847583,-2.36007 -2.281515,-1.57346 -4.071595,-3.77616 -5.369698,-6.60838 -1.258767,-2.83223 -1.789867,-6.09713 -1.593185,-9.79475 0.157346,-2.9109 0.668871,-5.52674 1.534273,-7.84759 0.904739,-2.32085 2.084903,-4.30771 3.540353,-5.95984 1.494786,-1.65213 3.166384,-2.91059 5.015197,-3.776 0.216514,-0.10374 0.435124,-0.20012 0.654225,-0.29197 z m 17.456297,0 c 1.06634,0.48375 2.024555,1.12992 2.870626,1.94407 2.084835,2.00616 3.225848,4.85792 3.422531,8.55555 h 2.1239 l 0.545187,-10.49962 h -2.907315 l 0.0021,0.0558 h -0.05891 c -0.0282,-0.0192 -0.05701,-0.0367 -0.08527,-0.0558 z m 52.313085,0 c -0.235283,0.48601 -0.451392,0.99472 -0.645438,1.53066 -0.826066,2.28151 -1.455554,4.8582 -1.888257,7.72976 H 86.25607 l -0.295071,2.53731 5.192448,-0.0589 c -0.118009,0.98341 -0.235974,2.00594 -0.353983,3.06803 -0.07867,1.02275 -0.157488,2.06537 -0.236162,3.12746 l -0.236162,3.18637 -0.235643,3.18585 c -0.354028,3.89431 -0.6492,7.55276 -0.885219,10.97504 -0.196681,3.38294 -0.472276,6.35265 -0.826305,8.90953 -0.354028,2.5962 -0.904703,4.62222 -1.652095,6.07766 -0.708057,1.45545 -1.750166,2.18335 -3.126941,2.18335 -0.708057,0 -1.278824,-0.15764 -1.711523,-0.47234 0,-0.78674 -0.196266,-1.43579 -0.58963,-1.94717 -0.432702,-0.47205 -1.003466,-0.72753 -1.711523,-0.76687 -0.590047,-0.0393 -1.061905,0.0786 -1.415934,0.35399 -0.354028,0.31469 -0.609533,0.64899 -0.766878,1.00303 -0.157346,0.39336 -0.236162,0.74726 -0.236162,1.06196 0,0.9834 0.39356,1.73085 1.18029,2.24224 0.786731,0.5507 1.927228,0.82629 3.422012,0.82629 2.36019,0 4.287809,-0.57076 5.782593,-1.71151 1.534123,-1.14075 2.733863,-2.71396 3.599265,-4.72014 0.865402,-1.96681 1.514467,-4.22876 1.947167,-6.78564 0.472038,-2.55685 0.825934,-5.2515 1.061953,-8.08373 0.236016,-2.87156 0.491521,-5.7429 0.766876,-8.61446 0.118009,-1.14076 0.2164,-2.26168 0.295074,-3.3631 0.07867,-1.14076 0.137914,-2.2622 0.177249,-3.36362 0.07867,-1.14076 0.137396,-2.24211 0.176734,-3.30419 0.07867,-1.06209 0.137914,-2.1042 0.17725,-3.12694 l 8.37882,-0.11834 0.17673,-2.30115 h -8.378301 c 0.157345,-1.84882 0.353611,-3.53999 0.58963,-5.07411 0.236019,-1.57346 0.550762,-2.93083 0.944128,-4.07159 0.01311,-0.0393 0.02749,-0.076 0.04082,-0.11472 z m 23.500897,0 -2.02004,3.41891 1.41645,1.18029 4.42661,-4.5992 z m -45.860254,8.61136 c -2.871563,0 -5.389005,0.55068 -7.55251,1.6521 -2.163506,1.06208 -3.973161,2.55699 -5.42861,4.48448 -1.416114,1.88815 -2.478312,4.07127 -3.186369,6.54947 -0.708057,2.47819 -1.06195,5.09403 -1.06195,7.84758 0,3.69763 0.708305,6.33304 2.124419,7.90649 1.455449,1.57348 3.245011,2.36058 5.369181,2.36058 0.826066,0 1.711058,-0.15763 2.655134,-0.47233 0.944075,-0.27535 1.907886,-0.86516 2.891297,-1.7699 1.022747,-0.90475 2.025706,-2.22245 3.009117,-3.95325 1.02275,-1.77014 2.00665,-4.1109 2.950726,-7.0218 h 0.176734 c -0.275357,1.45545 -0.53086,2.85197 -0.766879,4.18941 -0.196683,1.33744 -0.295074,2.57633 -0.295074,3.71709 0,1.57347 0.334322,2.85201 1.003041,3.83541 0.668721,0.98343 1.789644,1.47537 3.363102,1.47537 1.180095,0 2.22272,-0.29516 3.127457,-0.88521 0.904741,-0.59005 1.671768,-1.3375 2.301153,-2.24224 0.629383,-0.90474 1.120817,-1.80931 1.474846,-2.71405 0.393364,-0.94407 0.649385,-1.77034 0.767395,-2.4784 l -1.652098,-0.35398 c -0.590045,2.08483 -1.29835,3.56016 -2.124417,4.42556 -0.78673,0.86541 -1.51461,1.29811 -2.183328,1.29811 -0.865404,0 -1.356836,-0.39356 -1.474846,-1.18028 -0.118009,-0.78673 -0.177252,-1.57334 -0.177252,-2.36007 0,-0.94407 0.07882,-2.2422 0.236162,-3.89433 0.157347,-1.69147 0.354126,-3.57994 0.590145,-5.66477 0.275354,-2.12417 0.550434,-4.34644 0.825791,-6.66729 l 0.944126,-7.08071 c -1.258766,-0.31469 -2.596044,-0.55062 -4.012158,-0.70797 -1.416113,-0.19668 -2.714241,-0.29507 -3.894335,-0.29507 z m 48.029624,0 c -2.39952,0 -4.50383,0.51153 -6.31331,1.53427 -1.80948,0.98342 -3.30438,2.34027 -4.48448,4.07107 -1.18009,1.69147 -2.06509,3.61909 -2.65513,5.7826 -0.59005,2.1635 -0.88522,4.38629 -0.88522,6.66781 0,3.81563 0.88499,6.90332 2.65513,9.26351 1.77015,2.32085 4.52404,3.48144 8.261,3.48144 1.80947,0 3.4615,-0.31474 4.95629,-0.94413 1.49478,-0.62937 2.87121,-1.61277 4.12998,-2.95019 1.25876,-1.33745 2.43893,-3.02914 3.54035,-5.07464 l -1.94717,-1.12086 c -0.8654,1.65213 -1.82921,3.00899 -2.8913,4.07107 -1.06208,1.02275 -2.18301,1.78978 -3.3631,2.30115 -1.14076,0.51138 -2.28125,0.76739 -3.42201,0.76739 -1.53412,0 -2.79311,-0.41312 -3.77652,-1.23919 -0.98341,-0.82607 -1.73086,-2.06548 -2.24224,-3.71761 -0.47203,-1.65213 -0.70796,-3.6972 -0.70796,-6.13606 1.84881,-0.19668 3.77643,-0.531 5.78259,-1.00303 2.00616,-0.47204 3.89411,-1.08196 5.66425,-1.82935 1.77014,-0.78673 3.20581,-1.77011 4.30723,-2.95021 1.10142,-1.18009 1.6521,-2.57661 1.6521,-4.18941 0,-1.69146 -0.39304,-3.02874 -1.17977,-4.01215 -0.78673,-0.98342 -1.80978,-1.69172 -3.06855,-2.12442 -1.25877,-0.4327 -2.59604,-0.64906 -4.01216,-0.64906 z m -0.8263,2.00608 c 1.41611,0 2.45873,0.43271 3.12745,1.29811 0.70806,0.86541 1.06196,1.9276 1.06196,3.18637 0,1.49479 -0.6094,2.81249 -1.82883,3.95325 -1.21943,1.10142 -2.77359,2.00651 -4.66173,2.71456 -1.88816,0.70806 -3.8745,1.19949 -5.95933,1.47485 0.15734,-2.12417 0.53133,-4.15018 1.12138,-6.07767 0.62938,-1.92749 1.51437,-3.50069 2.65513,-4.72012 1.18009,-1.21943 2.67449,-1.82935 4.48397,-1.82935 z m -49.03267,0.11834 c 0.904738,0 1.750584,0.0587 2.537312,0.17673 0.786731,0.11801 1.47546,0.29522 2.065507,0.53124 0,2.12417 -0.216355,4.34644 -0.649055,6.66729 -0.432702,2.32085 -1.023043,4.60237 -1.770435,6.84454 -0.747392,2.20284 -1.593236,4.20928 -2.537312,6.01876 -0.944076,1.77014 -1.966608,3.18623 -3.068029,4.24832 -1.062085,1.06208 -2.124286,1.59318 -3.186369,1.59318 -1.455449,0 -2.458408,-0.80669 -3.009119,-2.41949 -0.550712,-1.65213 -0.826307,-3.73686 -0.826307,-6.2544 0,-2.1635 0.196781,-4.26781 0.590145,-6.31331 0.432702,-2.08483 1.081767,-3.95321 1.947169,-5.60534 0.865402,-1.69147 1.947175,-3.02926 3.245279,-4.01267 1.337439,-0.98342 2.891073,-1.47485 4.661214,-1.47485 z" />
      <text
         xml:space="preserve"
         style="font-style:normal;font-variant:normal;font-weight:500;font-stretch:normal;font-size:14.7495px;line-height:15.3641px;font-family:Lora;-inkscape-font-specification:'Lora Medium';letter-spacing:0px;word-spacing:0px;fill:#ececec;fill-opacity:1;stroke:none;stroke-width:0.614564px;stroke-linecap:butt;stroke-linejoin:miter;stroke-opacity:1"
         x="39.524918"
         y="244.03346"
         id="text155766"><tspan
           sodipodi:role="line"
           id="tspan155764"
           x="39.524918"
           y="244.03346"
           style="font-style:italic;font-variant:normal;font-weight:500;font-stretch:normal;font-family:Lora;-inkscape-font-specification:'Lora Medium Italic';fill:#ececec;fill-opacity:1;stroke:none;stroke-width:0.614564px">de la</tspan></text>
      <text
         xml:space="preserve"
         style="font-style:normal;font-variant:normal;font-weight:500;font-stretch:normal;font-size:19.4348px;line-height:20.2446px;font-family:Lora;-inkscape-font-specification:'Lora Medium';letter-spacing:0px;word-spacing:0px;fill:#ececec;fill-opacity:1;stroke:none;stroke-width:0.809784px;stroke-linecap:butt;stroke-linejoin:miter;stroke-opacity:1"
         x="57.931976"
         y="262.80124"
         id="text155766-1"><tspan
           sodipodi:role="line"
           id="tspan155764-4"
           x="57.931976"
           y="262.80124"
           style="font-style:italic;font-variant:normal;font-weight:500;font-stretch:normal;font-family:Lora;-inkscape-font-specification:'Lora Medium Italic';fill:#ececec;fill-opacity:1;stroke:none;stroke-width:0.809784px">Régence</tspan></text>
    </g>
    <rect
       y="12.85"
       x="12.850001"
       height="176.99263"
       width="150.35393"
       id="rect14184-7-4-7"
       style="fill:#ffffff;stroke:#000000;stroke-width:0.7;stroke-miterlimit:4;stroke-dasharray:none" />
    <text
       xml:space="preserve"
       style="font-style:normal;font-variant:normal;font-weight:normal;font-stretch:normal;font-size:9.88425px;line-height:10.1885px;font-family:'Bilbo Swash Caps';-inkscape-font-specification:'Bilbo Swash Caps, Normal';font-variant-ligatures:normal;font-variant-caps:normal;font-variant-numeric:normal;font-variant-east-asian:normal;letter-spacing:0px;word-spacing:0px;white-space:pre;shape-inside:url(#rect14213-1-0-12-4-8-4-9-8);fill:#000000;stroke:none;stroke-width:0.0131258px;stroke-linecap:butt;stroke-linejoin:miter;stroke-opacity:1;"
       x="1737.7679"
       y="28.399433"
       id="text13329-2-6-3-4-3-3"
       transform="matrix(0.78520007,0,0,0.78520007,-1177.8011,-13.370467)"><tspan
         x="1521.25"
         y="45.367556"><tspan
           dx="0 0 0 0.24655867 0 0 0 0 0 0 0.24656153 0 0 0 0 0.24655771 0 0 0.24655771 0 0 0 0 0.24655771 0 0 0.24655771 0 0 0.24655771 0 0 0 0 0.24655008 0 0.24655008 0 0 0 0 0.24655008"
           style="font-style:normal;font-variant:normal;font-weight:normal;font-stretch:normal;font-size:9.88425px;font-family:'La Belle Aurore';-inkscape-font-specification:'La Belle Aurore';text-align:justify;text-anchor:start">my letter what he knew to be only a part of </tspan></tspan><tspan
         x="1521.25"
         y="56.536257"><tspan
           style="font-style:normal;font-variant:normal;font-weight:normal;font-stretch:normal;font-size:9.88425px;font-family:'La Belle Aurore';-inkscape-font-specification:'La Belle Aurore';text-align:justify;text-anchor:start">it.
</tspan></tspan><tspan
         x="1521.25"
         y="67.704958"><tspan
           dx="0 0.84881878 0.84881878 0 0 0 0 0.84882212 0 0 0 0.8488183 0 0 0 0 0 0 0 0 0.84881449 0 0.84882212 0 0 0 0.84881449 0 0 0 0 0 0 0.84881449 0 0 0.84882975"
           style="font-style:normal;font-variant:normal;font-weight:normal;font-stretch:normal;font-size:9.88425px;font-family:'La Belle Aurore';-inkscape-font-specification:'La Belle Aurore';text-align:justify;text-anchor:start">  From Mr. Staunton I now appeal to the </tspan></tspan><tspan
         x="1521.25"
         y="78.873659"><tspan
           dx="0 0 0 0 0 -6.7392597 6.7730889 0 0 0 -6.7392621 6.7730889 0 -6.7392592 6.7730851 0 0 0 0 0 0 -6.7392602 6.7730851 0 0 0 0 -6.7392535 6.7730851 0 0 0 0 0 0 0 -6.7392659"
           style="font-style:normal;font-variant:normal;font-weight:normal;font-stretch:normal;font-family:'La Belle Aurore';-inkscape-font-specification:'La Belle Aurore';word-spacing:6.73926px">great body of English Chess players, </tspan></tspan><tspan
         x="1521.25"
         y="90.042361"><tspan
           style="font-style:normal;font-variant:normal;font-weight:normal;font-stretch:normal;font-family:'La Belle Aurore';-inkscape-font-specification:'La Belle Aurore';word-spacing:6.73926px">I</tspan><tspan
           dx="0 1.5772843 0 0 0 0 0 0 1.5772843 0 0 1.5772843 0 0 0 1.5772843 0 0 0 0 0 0 0 1.5772843 0 0 0 0 0 1.577292"
           style="font-style:normal;font-variant:normal;font-weight:normal;font-stretch:normal;font-size:9.88425px;font-family:'La Belle Aurore';-inkscape-font-specification:'La Belle Aurore';text-align:justify;text-anchor:start"> appeal to the British Chess Association, </tspan></tspan><tspan
         x="1521.25"
         y="101.21106"><tspan
           dx="0 0 3.7568307 0 0 0 0 0 0 3.7568307 0 0 3.7568307 0 0 0 0 0 0 0 0 0 3.7568345 0 0 3.7568345 0 0 0 0 0 3.7568345 0 0 3.7568345"
           style="font-style:normal;font-variant:normal;font-weight:normal;font-stretch:normal;font-size:9.88425px;font-family:'La Belle Aurore';-inkscape-font-specification:'La Belle Aurore';text-align:justify;text-anchor:start">I appeal to yourself, my lord, as the </tspan></tspan><tspan
         x="1521.25"
         y="112.37976"><tspan
           dx="0 0 0 0 0 0 0 0 0 3.2954469 0 0 3.2954469 0 0 0 0 0 0 0 3.2954469 0 0 0 0 0 0 3.2954469 0 0 0 0 3.2954392 0 0 3.2954392"
           style="font-style:normal;font-variant:normal;font-weight:normal;font-stretch:normal;font-size:9.88425px;font-family:'La Belle Aurore';-inkscape-font-specification:'La Belle Aurore';text-align:justify;text-anchor:start">Maecenas of English Chess. And, as I </tspan></tspan><tspan
         x="1521.25"
         y="123.54846"><tspan
           dx="0 0 0 0 0 0 0 0 4.1432633 0 0 0 0 4.1432633 0 0 0 0 0 0 0 4.1432633 0 0 0 4.1432633 0 0 0 4.1432557 0 0 0 0 0 0 0 4.1432633"
           style="font-style:normal;font-variant:normal;font-weight:normal;font-stretch:normal;font-size:9.88425px;font-family:'La Belle Aurore';-inkscape-font-specification:'La Belle Aurore';text-align:justify;text-anchor:start">visited your country for the purpose of </tspan></tspan><tspan
         x="1521.25"
         y="134.71717"><tspan
           dx="0 0 0 0 0 0 0 0 0 0 0 0 1.1765199 0 0 0 1.1765161 0 0 0 0 0 0 0 0 0 1.1765199 0 0 0 0 0 1.1765122 0 0 0 0 0 0 0 0 0 1.1765275"
           style="font-style:normal;font-variant:normal;font-weight:normal;font-stretch:normal;font-size:9.88425px;font-family:'La Belle Aurore';-inkscape-font-specification:'La Belle Aurore';text-align:justify;text-anchor:start">challenging Mr. Staunton, which challenge he </tspan></tspan><tspan
         x="1521.25"
         y="145.88587"><tspan
           dx="0 0 0 0 1.6271567 0 0 0 0 0 0 0 0 0 0 1.6271539 0 0 0 0 0 0 0 0 0 1.6271577 0 1.6271577 0 0 0 1.6271653 0 0 0 0 0 0 1.6271501"
           style="font-style:normal;font-variant:normal;font-weight:normal;font-stretch:normal;font-size:9.88425px;font-family:'La Belle Aurore';-inkscape-font-specification:'La Belle Aurore';text-align:justify;text-anchor:start">has repeatedly accepted, I now demand of </tspan></tspan><tspan
         x="1521.25"
         y="157.05457"><tspan
           dx="0 0 0 0 0.50668764 0 0 0 0 0.50668955 0 0 0 0.50668955 0 0 0 0 0 0.50668955 0 0 0 0 0 0 0 0.50668955 0 0 0.50668955 0 0 0 0.50669718 0 0 0 0 0 0.50668192 0 0 0.50668192"
           style="font-style:normal;font-variant:normal;font-weight:normal;font-stretch:normal;font-size:9.88425px;font-family:'La Belle Aurore';-inkscape-font-specification:'La Belle Aurore';text-align:justify;text-anchor:start">you that you shall declare to the world it is </tspan></tspan><tspan
         x="1521.25"
         y="168.22327"><tspan
           dx="0 0 0 0 0 0 0 0 0.2261529 0 0 0.2261529 0 0 0 0 0 0.22614908 0 0 0.22615671 0 0 0 0 0.22614908 0 0 0 0 0.22614908 0 0 0 0 0.22614908 0 0 0 0 0 0.22614908"
           style="font-style:normal;font-variant:normal;font-weight:normal;font-stretch:normal;font-size:9.88425px;font-family:'La Belle Aurore';-inkscape-font-specification:'La Belle Aurore';text-align:justify;text-anchor:start">through no fault of mine that this match has </tspan></tspan><tspan
         x="1521.25"
         y="179.39197"><tspan
           dx="0 0 0 0 1.3400693 0 0 0 0 0 1.3400712 0 0 0 0 0 0 1.3400674 1.3400712 1.3400712 1.3400712 1.3400712 1.3400636 1.3400712 1.3400712 1.3400712 1.3400712 1.3400712 1.3400712 1.3400712 1.3400712 1.3400559 1.3400712 1.3400712 1.3400712 1.3400712"
           style="font-style:normal;font-variant:normal;font-weight:normal;font-stretch:normal;font-size:9.88425px;font-family:'La Belle Aurore';-inkscape-font-specification:'La Belle Aurore';text-align:justify;text-anchor:start">not taken place.                   
</tspan></tspan><tspan
         x="1521.25"
         y="190.56067"><tspan
           style="font-style:normal;font-variant:normal;font-weight:normal;font-stretch:normal;font-size:9.88425px;font-family:'La Belle Aurore';-inkscape-font-specification:'La Belle Aurore';text-align:justify;text-anchor:start">
</tspan></tspan><tspan
         x="1521.25"
         y="201.72937"><tspan
           dx="0 -0.23356867 -0.23356867 -0.23356867 -0.23356867 -0.23356771 0 -0.23356771 0 0 0 0 -0.23356771 0 0 0 -0.23356771 0 0 0 0 0 0 -0.23356771 0 0 -0.23357534 0 0 0 0 0 0 0 -0.23356771 0 0 -0.23356771 0 0 0 0 0 -0.23356771"
           style="font-style:normal;font-variant:normal;font-weight:normal;font-stretch:normal;font-size:9.88425px;font-family:'La Belle Aurore';-inkscape-font-specification:'La Belle Aurore';text-align:justify;text-anchor:start">     I have the honour to remain, my lord, 
</tspan></tspan><tspan
         x="1521.25"
         y="212.89807"><tspan
           dx="0 5.743753 5.743753 5.743752 5.7437539 5.7437539 0 0 0 0 0 5.7437577 0 0 0 0 5.7437501 0 0 0 0 0 0 0 0 0 0 0 0 0 5.7437425 5.7437577"
           style="font-style:normal;font-variant:normal;font-weight:normal;font-stretch:normal;font-size:9.88425px;font-family:'La Belle Aurore';-inkscape-font-specification:'La Belle Aurore';text-align:justify;text-anchor:start">     yours very respectfully,  
</tspan></tspan><tspan
         x="1521.25"
         y="224.06677"><tspan
           style="font-style:normal;font-variant:normal;font-weight:normal;font-stretch:normal;font-size:9.88425px;font-family:'La Belle Aurore';-inkscape-font-specification:'La Belle Aurore';text-align:justify;text-anchor:start">
</tspan></tspan><tspan
         x="1521.25"
         y="235.23548"><tspan
           style="font-style:normal;font-variant:normal;font-weight:normal;font-stretch:normal;font-size:9.88425px;font-family:'La Belle Aurore';-inkscape-font-specification:'La Belle Aurore';text-align:justify;text-anchor:start">                Paul Morphy</tspan></tspan></text>
    <g
       id="g174697"
       style="fill:#000000"
       transform="matrix(0.50952412,0,0,0.50952412,-815.67213,25.873246)">
      <path
         d="m 1887.8376,413.64566 c -0.27,1.69095 -0.3116,3.36683 0.012,5.0482 0.4947,2.03338 1.6209,3.77597 2.7967,5.47084 1.432,2.18927 3.2283,3.50391 5.4933,4.74432 1.6448,0.72835 3.2319,1.6164 4.9395,2.19959 2.2854,0.78058 4.6727,1.23894 7.0352,1.70543 5.2386,0.83587 10.544,1.06836 15.839,1.19142 4.2259,0.0587 8.4322,-0.3048 12.6199,-0.82855 2.7444,-0.43219 5.4883,-0.86339 8.2184,-1.37903 2.8001,-0.39373 5.5221,-1.13242 8.2162,-1.97133 3.2677,-0.98394 6.108,-2.79736 9.018,-4.52488 1.3978,-1.12519 2.3811,-2.55109 3.1632,-4.14335 0.9099,-2.00385 1.286,-4.12385 1.49,-6.29645 0.2281,-2.3305 0.093,-4.64918 -0.637,-6.87575 -0.6778,-1.94014 -2.0592,-3.32105 -3.5834,-4.62484 -1.8521,-1.50468 -4.0576,-2.44946 -6.2745,-3.27504 -2.5849,-1.0927 -5.2884,-1.64205 -8.0502,-2.04517 -3.2394,-0.47083 -6.5126,-0.5456 -9.776,-0.70689 -4.1538,-0.2462 -8.3133,-0.35978 -12.4733,-0.42833 -4.2299,-0.18148 -8.4427,0.0661 -12.6354,0.61526 -3.7528,0.5094 -7.4954,1.07804 -11.2246,1.73723 -2.2038,0.44386 -4.4152,0.80605 -6.5414,1.54966 -2.7175,1.15165 -5.195,2.73468 -7.277,4.80695 -1.157,1.01989 -1.7495,2.27558 -2.1248,3.74105 -0.3466,1.23838 -0.1769,2.46174 -0.015,3.70946 0.1994,1.27653 0.8718,2.37783 1.5418,3.45477 0.5111,0.93506 1.118,1.82329 1.7506,2.68039 0.6809,0.96186 1.526,1.73336 2.4356,2.47036 0.1843,0.16904 0.3686,0.33806 0.5529,0.5071 0,0 2.6477,-1.63664 2.6477,-1.63664 v 0 c -0.1869,-0.17459 -0.3739,-0.34919 -0.5608,-0.52379 -0.8774,-0.73131 -1.7192,-1.47302 -2.3833,-2.41345 -0.6352,-0.84471 -1.2195,-1.73802 -1.7372,-2.65912 -0.654,-1.03589 -1.3106,-2.09256 -1.4855,-3.33144 -0.1537,-1.21201 -0.2756,-2.40398 0.069,-3.60085 0.3965,-1.42034 1.0607,-2.59871 2.1828,-3.58405 0.6401,-0.61206 1.2992,-1.22139 2.0172,-1.74289 0.2631,-0.19105 1.1076,-0.67839 0.8165,-0.53358 -0.6099,0.3034 -1.2033,0.64212 -1.776,1.01092 -0.2833,0.1824 0.6033,-0.30004 0.905,-0.45006 2.1231,-0.78354 4.3333,-1.16739 6.5461,-1.61832 3.742,-0.67686 7.4954,-1.27564 11.2644,-1.78446 4.1803,-0.55427 8.3824,-0.82788 12.6014,-0.64495 4.1491,0.0655 8.2986,0.16746 12.4403,0.43792 3.2558,0.19407 6.5263,0.21878 9.7615,0.68341 2.7345,0.40005 5.4168,0.94475 7.9794,2.01711 2.19,0.79504 4.369,1.72736 6.2055,3.18979 1.4834,1.26418 2.8268,2.60054 3.488,4.48466 0.7154,2.18509 0.8399,4.46471 0.6012,6.74955 -0.2297,2.14421 -0.6334,4.24256 -1.566,6.20733 -0.799,1.54631 -1.8096,2.93844 -3.2229,3.98823 0.6059,-0.3356 1.2046,-0.68474 1.8178,-1.0068 0.3095,-0.16256 -0.601,0.35746 -0.9062,0.52806 -1.4723,0.8232 -3.0429,1.44661 -4.6297,2.01192 -2.6805,0.84936 -5.3902,1.61192 -8.1835,1.99107 -2.7368,0.52559 -5.4884,0.95665 -8.2368,1.41644 -4.1937,0.54261 -8.4042,0.9525 -12.64,0.89858 -5.286,-0.10962 -10.5869,-0.30311 -15.8161,-1.1449 -4.2085,-0.82632 -8.0695,-1.79266 -11.8597,-3.87125 -2.1711,-1.19211 -4.0071,-2.54389 -5.3801,-4.64715 -1.1456,-1.6611 -2.2588,-3.36457 -2.7278,-5.35881 -0.2832,-1.66063 -0.2373,-3.31878 0.082,-4.97584 0,0 -2.8241,1.38094 -2.8241,1.38094 z"
         id="path174604"
         style="fill:#000000;stroke:none;stroke-width:0.499999;stroke-dasharray:3, 0.750001;stop-color:#000000" />
      <path
         d="m 1889.2241,422.28269 c -0.3567,2.1408 -0.1072,4.26146 0.3399,6.36363 0.5573,1.89336 1.1582,3.77412 1.8048,5.63864 0.4778,1.25907 1.0785,2.46362 1.7934,3.60392 0.9356,1.59745 1.7275,3.27056 2.5985,4.90289 0.8875,1.83255 2.0223,3.53213 3.2423,5.15789 1.2132,1.71736 2.569,3.31893 4.0495,4.8097 1.3115,1.36988 2.8111,2.51013 4.2967,3.67519 1.1807,0.88144 2.4089,1.69477 3.6615,2.47031 1.2755,0.72441 2.6098,1.34507 3.9435,1.95461 1.7352,0.67289 3.5006,1.24201 5.3231,1.61931 1.6942,0.42685 3.4169,0.66595 5.1574,0.78464 1.9064,0.10412 3.8103,0.13923 5.7121,-0.0355 1.6857,-0.16124 3.2129,-0.77041 4.7135,-1.51106 2.8808,-1.28754 5.6056,-2.88068 8.1605,-4.72908 1.8863,-1.29421 3.4715,-2.90767 5.0156,-4.57976 1.514,-1.66214 2.9821,-3.37452 4.2839,-5.20911 1.2623,-1.85688 2.133,-3.92975 2.9711,-6.00171 0.8767,-1.97903 1.5894,-4.0259 2.4898,-5.99429 0.9491,-2.34402 1.8165,-4.72959 2.6132,-7.13079 0.647,-2.36825 1.6441,-4.61242 2.4399,-6.92867 0.088,-0.29567 0.1755,-0.59131 0.2632,-0.88698 0,0 -2.8014,1.3268 -2.8014,1.3268 v 0 c -0.087,0.29036 -0.1733,0.58074 -0.2599,0.87109 -0.7945,2.31201 -1.7594,4.56398 -2.4205,6.9225 -0.8061,2.39522 -1.6561,4.78542 -2.6445,7.11095 -0.8789,1.97694 -1.6082,4.01545 -2.4724,5.99889 -0.8422,2.05714 -1.7346,4.10949 -3.0128,5.94067 -1.3158,1.81226 -2.7704,3.52247 -4.2876,5.1689 -1.5471,1.66415 -3.1688,3.23696 -5.0499,4.52749 -0.6995,0.50239 -3.7593,2.58263 -0.01,0.26109 0.3093,-0.19153 -0.6486,0.3302 -0.9739,0.49321 -0.3161,0.15841 -0.6315,0.31819 -0.9504,0.47104 -0.3084,0.14788 -0.6207,0.28734 -0.931,0.43101 -1.4875,0.73885 -2.9681,1.41785 -4.6453,1.60078 -1.8923,0.1918 -3.784,0.18992 -5.6837,0.077 -1.7307,-0.10914 -3.4493,-0.31745 -5.1322,-0.75261 -1.8111,-0.34652 -3.5544,-0.90175 -5.2735,-1.56739 -1.3276,-0.59386 -2.6425,-1.22661 -3.92,-1.92127 -1.2442,-0.77378 -2.4681,-1.57488 -3.6541,-2.43443 -1.4761,-1.1602 -2.9813,-2.27875 -4.2934,-3.63332 -1.4777,-1.47272 -2.8056,-3.08083 -4.0197,-4.77781 -1.2188,-1.60806 -2.3344,-3.29814 -3.2127,-5.11892 -0.8713,-1.64077 -1.68,-3.31322 -2.5951,-4.93065 -0.7053,-1.1185 -1.2721,-2.31534 -1.7568,-3.54502 -0.6595,-1.842 -1.2859,-3.69773 -1.8335,-5.57636 -0.4275,-2.0816 -0.6381,-4.19184 -0.2142,-6.29718 0,0 -2.8252,1.37982 -2.8252,1.37982 z"
         id="path174612"
         style="fill:#000000;stroke:none;stroke-width:0.499999;stroke-dasharray:3, 0.750001;stop-color:#000000" />
      <path
         d="m 1965.2545,423.69567 c -0.6891,0.40476 -1.4009,0.77328 -2.0674,1.21431 -0.2405,0.15915 0.5202,-0.24934 0.7843,-0.36526 1.3198,-0.57941 2.6658,-1.11432 4.0131,-1.62552 2.1282,-0.70196 4.3562,-0.95874 6.5816,-1.09868 1.5856,-0.13848 3.1267,0.1207 4.5973,0.70533 1.0798,0.47101 2.2965,1.02367 2.9601,2.06078 0.156,0.24392 0.2527,0.5211 0.3791,0.78163 0.8657,2.21653 0.5552,4.46323 0.029,6.71031 -0.4906,1.6105 -0.9887,3.25396 -1.7795,4.74978 -0.2949,0.55785 -0.8565,1.37446 -1.206,1.90016 -1.5476,2.04552 -3.6136,3.60116 -5.6748,5.09315 -0.5024,0.30125 -0.9857,0.63685 -1.5072,0.90373 -0.3273,0.16754 1.2763,-0.70527 0.9227,-0.60457 -0.6164,0.17555 -1.1515,0.56325 -1.7319,0.83505 -1.6242,0.76057 -3.237,1.38015 -4.9463,1.9168 -2.8422,0.87733 -5.7921,1.32488 -8.7341,1.71257 -1.4225,0.22273 -2.8431,0.45318 -4.271,0.63881 0,0 -2.4829,1.85322 -2.4829,1.85322 v 0 c 1.4382,-0.18547 2.8686,-0.41444 4.2981,-0.65804 2.9575,-0.39045 5.928,-0.81873 8.7887,-1.68984 4.4555,-1.34732 8.5836,-3.52653 12.5006,-6.03123 2.0712,-1.51773 4.1513,-3.10103 5.6619,-5.20764 1.3465,-2.08063 2.3301,-4.32972 2.9278,-6.74351 0.5225,-2.31625 0.7888,-4.63431 -0.099,-6.9088 -0.1363,-0.28507 -0.2411,-0.58746 -0.4087,-0.85524 -0.6774,-1.08167 -1.9161,-1.70032 -3.0414,-2.1861 -1.4907,-0.63079 -3.0624,-0.95117 -4.6883,-0.8124 -2.2444,0.13393 -4.4889,0.37955 -6.6496,1.03542 -2.8091,1.03309 -5.5795,2.14448 -8.0771,3.82974 0,0 2.9203,-1.15396 2.9203,-1.15396 z"
         id="path174614"
         style="fill:#000000;stroke:none;stroke-width:0.499999;stroke-dasharray:3, 0.750001;stop-color:#000000" />
      <path
         d="m 1893.9953,436.276 c -2.114,0.36299 -4.1112,1.15197 -6.0768,1.98261 -3.2129,1.65237 -6.4079,3.38002 -9.3725,5.45176 -1.6376,1.17798 -3.2475,2.43298 -4.7042,3.83246 -1.1736,1.03344 -1.9352,2.26571 -2.3339,3.76701 -0.4447,1.85915 -0.1054,3.23437 0.76,4.89159 0.9833,1.6981 2.4265,3.03366 3.9185,4.27741 1.5413,1.1878 3.0479,2.43102 4.659,3.52325 1.4967,1.04174 2.9651,2.12555 4.4835,3.1356 1.3002,1.0147 2.6168,2.00184 3.982,2.92881 1.7491,1.00848 3.6116,1.80512 5.4711,2.58508 2.3256,0.95716 4.6529,1.91101 6.9748,2.87769 2.3448,1.07627 4.8507,1.55019 7.3641,2.03359 2.788,0.46582 5.5738,0.93445 8.3494,1.47066 2.6709,0.43325 5.3625,0.74101 8.0588,0.96387 2.5797,0.19868 5.1674,0.2354 7.7534,0.25377 2.6785,0.0161 5.3537,0.0458 8.0269,-0.13732 2.6647,-0.12595 5.2723,-0.56568 7.8279,-1.31498 2.3629,-0.72242 4.5333,-1.90998 6.6828,-3.10335 2.993,-1.54721 5.6961,-3.47419 8.2313,-5.66828 1.37,-1.31974 2.9056,-2.43604 4.4198,-3.57859 1.1435,-0.99328 2.5124,-1.65955 3.671,-2.62946 0.8804,-0.86304 1.8342,-1.64536 2.5703,-2.64096 0.7135,-0.72636 1.1658,-1.61031 1.6043,-2.51315 0.4773,-1.16213 0.5911,-2.40874 0.6734,-3.64871 0.059,-1.21713 0.054,-2.43641 0.054,-3.65469 0.043,-0.9771 0.01,-1.92217 -0.3063,-2.85326 -0.3361,-1.0422 -1.0626,-1.88969 -1.6791,-2.77503 -0.6013,-0.68207 -0.9914,-1.50935 -1.5232,-2.23925 0,0 -2.7074,1.60509 -2.7074,1.60509 v 0 c 0.5447,0.71692 0.9286,1.54752 1.5379,2.21925 0.5985,0.86053 1.2986,1.6891 1.6226,2.70195 0.2857,0.90181 0.2927,1.82213 0.2676,2.7622 0,1.21081 0.01,2.42265 -0.059,3.63204 -0.089,1.21026 -0.2206,2.42842 -0.7344,3.54459 -0.4365,0.89035 -0.9561,1.71628 -1.6273,2.45312 -0.7689,0.94609 -1.6945,1.7446 -2.588,2.56965 -1.1864,0.92269 -2.5229,1.63346 -3.6665,2.61639 -1.5108,1.13583 -3.0093,2.28621 -4.3856,3.58648 -0.8858,0.75774 -1.7756,1.50074 -2.7202,2.18546 -0.322,0.23344 -0.6477,0.46193 -0.9772,0.68463 -0.3166,0.21392 -1.3139,0.77058 -0.9607,0.625 0.5909,-0.24352 1.1207,-0.6146 1.6811,-0.92191 -2.1441,1.20925 -4.3118,2.41247 -6.6635,3.17465 -0.7427,0.22347 -1.9473,0.60579 -2.7199,0.76235 -1.6588,0.3361 -3.3727,0.42791 -5.0525,0.59396 -2.6694,0.20278 -5.3395,0.19114 -8.0158,0.15936 -2.5843,-0.0183 -5.1704,-0.0449 -7.7493,-0.22886 -2.6867,-0.21331 -5.3648,-0.52901 -8.0276,-0.94539 -2.7834,-0.5267 -5.5742,-0.99999 -8.3703,-1.45449 -2.4879,-0.49451 -4.9784,-0.94948 -7.3103,-1.99615 -2.3205,-0.95967 -4.6419,-1.91569 -6.9565,-2.88875 -1.8437,-0.7698 -3.6871,-1.55604 -5.4301,-2.53783 -1.3654,-0.92789 -2.6806,-1.91788 -3.9802,-2.93428 -1.5235,-1.00412 -2.997,-2.08116 -4.4899,-3.12962 -1.6167,-1.06826 -3.0988,-2.32966 -4.6464,-3.49457 -1.4728,-1.20438 -2.8738,-2.52042 -3.8447,-4.17724 -0.8334,-1.59951 -1.1118,-2.90856 -0.6383,-4.68889 0.4435,-1.44547 1.2472,-2.61184 2.3909,-3.60963 1.4722,-1.36144 3.0453,-2.62816 4.6887,-3.77582 0.3503,-0.23929 0.6954,-0.48649 1.0511,-0.71784 0.3607,-0.23463 1.4957,-0.84251 1.0974,-0.67977 -0.5084,0.20773 -0.9688,0.51986 -1.4312,0.81614 -0.3873,0.24818 0.8034,-0.44813 1.2055,-0.67152 0.3623,-0.20129 0.7225,-0.40661 1.0877,-0.60248 0.3608,-0.19349 0.7269,-0.377 1.0902,-0.56549 1.9338,-0.83198 3.8947,-1.63777 5.9786,-2.00824 0,0 2.5125,-1.88167 2.5125,-1.88167 z"
         id="path174616"
         style="fill:#000000;stroke:none;stroke-width:0.499999;stroke-dasharray:3, 0.750001;stop-color:#000000" />
      <path
         d="m 1969.7072,440.48584 c -1.5163,-0.88913 -3.1029,-1.65171 -4.6596,-2.46681 -0.6397,-0.32737 -1.2806,-0.65027 -1.9308,-0.95608 0,0 -2.6021,1.724 -2.6021,1.724 v 0 c 0.654,0.29491 1.2938,0.61566 1.937,0.93348 1.5539,0.80989 3.1523,1.55017 4.6352,2.486 0,0 2.6203,-1.72059 2.6203,-1.72059 z"
         id="path174618"
         style="fill:#000000;stroke:none;stroke-width:0.499999;stroke-dasharray:3, 0.750001;stop-color:#000000" />
      <path
         d="m 1877.1169,448.00848 c 1.1469,-2.12188 2.7049,-3.93973 4.3745,-5.66066 1.8602,-1.9831 4.0364,-3.59865 6.3879,-4.94469 3.0552,-1.79496 -0.3215,0.18695 -0.3834,0.23286 -0.2946,0.21825 0.6501,-0.33946 0.9805,-0.4985 0.7317,-0.35232 1.4699,-0.63056 2.2435,-0.87149 1.3659,-0.35158 1.6328,-0.46431 3.005,-2.08468 0.1718,-0.20288 -0.5268,0.0743 -0.7874,0.12669 -1.1778,0.23651 -1.9634,0.46294 -3.1671,0.7761 -3.4595,1.04537 -6.979,2.14365 -10.1186,3.98042 -1.3762,0.80512 -2.7181,1.66745 -4.0771,2.50118 -2.5058,1.63685 -4.0467,3.73081 -5.2989,6.39218 -0.6312,1.93593 -1.125,4.12387 -0.6634,6.15973 0.1052,0.4639 0.2912,0.90567 0.4368,1.35853 1.0654,2.78451 2.7466,5.23762 4.7021,7.46292 2.0194,2.15808 4.3113,4.01029 6.6904,5.75083 2.203,1.53887 4.6506,2.61448 7.1447,3.57555 2.8312,1.12202 5.7307,2.03626 8.706,2.6815 3.0845,0.64484 6.2046,1.10495 9.3403,1.41007 3.435,0.2922 6.8848,0.29281 10.3294,0.31321 3.7079,0.0222 7.4158,0 11.1237,-0.003 3.6079,-0.01 7.2141,0.0641 10.8178,-0.13534 2.4807,-0.0466 4.9102,-0.3588 7.3356,-0.86114 2.6533,-0.50826 5.291,-1.07574 7.8468,-1.95876 2.6676,-0.8904 5.2395,-2.01811 7.8016,-3.16942 2.9249,-1.48124 5.8949,-2.98492 8.3934,-5.13122 1.7671,-1.72905 3.3382,-3.64535 4.7182,-5.69338 1.1979,-2.10246 2.1377,-4.39251 2.4586,-6.79945 0.2428,-1.98501 -0.6018,-3.75793 -1.6305,-5.39189 -0.8121,-1.43357 -1.8813,-2.65131 -3.1306,-3.71348 -1.7046,-1.25683 -3.3846,-2.53921 -5.1498,-3.71076 -1.7865,-1.07309 -3.8134,-1.63033 -5.8251,-2.10796 0,0 -2.5416,1.75985 -2.5416,1.75985 v 0 c 1.9888,0.44667 3.9845,0.99351 5.7631,2.01747 1.7652,1.15031 3.434,2.42192 5.1174,3.68729 1.2335,1.03587 2.2816,2.22554 3.0867,3.62934 1.0026,1.57708 1.7975,3.27332 1.5379,5.1938 -0.3571,2.36101 -1.2709,4.61526 -2.495,6.66025 -1.41,2.01663 -2.9629,3.94052 -4.7657,5.62295 -0.2962,0.2427 -0.5838,0.49636 -0.8887,0.72816 -0.2814,0.214 -1.1999,0.73245 -0.8689,0.60828 0.62,-0.23254 1.1607,-0.63799 1.7505,-0.93898 0.329,-0.16793 -0.6445,0.3615 -0.9682,0.53975 -1.1773,0.64839 -0.9247,0.5067 -2.1699,1.14263 -2.5543,1.15226 -5.1142,2.28936 -7.7748,3.18042 -2.5371,0.92287 -5.1708,1.48913 -7.8202,1.98983 -2.4195,0.51832 -4.8428,0.85315 -7.3213,0.9071 -3.6114,0.22807 -7.2255,0.17899 -10.843,0.17571 -3.7042,0.003 -7.4084,-0.003 -11.1126,-0.003 -3.4335,-0.0177 -6.8716,-0.0348 -10.2966,-0.30335 -3.1266,-0.29183 -6.2355,-0.74853 -9.3105,-1.38848 -2.9677,-0.61661 -5.8587,-1.51638 -8.6735,-2.64427 -2.4682,-0.96237 -4.9078,-1.99628 -7.1031,-3.50721 -2.3644,-1.72627 -4.6521,-3.54803 -6.6593,-5.69116 -1.9231,-2.19681 -3.6031,-4.6001 -4.632,-7.35626 -0.1332,-0.4381 -0.3047,-0.86633 -0.3995,-1.31427 -0.4231,-1.9989 0.08,-4.1275 0.7463,-6.00749 1.2605,-2.61089 2.8445,-4.62392 5.314,-6.22176 -0.3635,0.16319 -1.422,0.7103 -1.0904,0.48961 0.5513,-0.36676 1.1613,-0.63735 1.7545,-0.93146 2.6551,-1.31644 5.4692,-2.28397 8.3141,-3.0982 1.2947,-0.33131 1.8472,-0.49358 3.0789,-0.74324 0.2432,-0.0493 0.5199,0 0.734,-0.12491 0.9643,-0.56597 1.8456,-1.26314 2.7503,-1.92016 0.2103,-0.15274 -1.3894,0.71104 -0.7459,0.22749 -2.9631,0.84661 -5.5244,2.61826 -8.173,4.14306 -2.3362,1.38298 -4.4941,3.02583 -6.3489,5.02052 -1.681,1.76033 -3.222,3.63627 -4.4199,5.76643 0,0 2.8699,-1.28201 2.8699,-1.28201 z"
         id="path174620"
         style="fill:#000000;stroke:none;stroke-width:0.499999;stroke-dasharray:3, 0.750001;stop-color:#000000" />
      <path
         d="m 1963.3338,439.53337 c -1.5297,-0.97168 -2.9426,-2.10529 -4.4953,-3.0425 -1.7296,-0.91067 -1.9092,-1.20097 -3.7002,0.98849 -0.1618,0.19782 0.5112,0.003 0.7667,0.003 2.3283,0.29903 4.5399,1.08331 6.7474,1.84163 0.8422,0.34023 1.673,0.70667 2.5128,1.05283 0,0 2.584,-1.7299 2.584,-1.7299 v 0 c -0.8537,-0.33766 -1.6976,-0.69734 -2.5451,-1.05056 -2.2225,-0.76784 -4.45,-1.52709 -6.774,-1.93233 -1.8801,-0.15099 -0.883,-0.22259 -3.8099,1.76432 -0.054,0.0369 0.084,0.10631 0.1421,0.13663 0.4652,0.2421 1.0341,0.29541 1.4654,0.6181 1.5648,0.90016 2.9739,2.01578 4.4575,3.03861 0,0 2.6486,-1.68828 2.6486,-1.68828 z"
         id="path174624"
         style="fill:#000000;stroke:none;stroke-width:0.499999;stroke-dasharray:3, 0.750001;stop-color:#000000" />
      <path
         d="m 1885.7893,408.43625 c 0.023,2.15575 0.4619,4.28025 0.7359,6.41366 0.2548,1.73122 0.8795,3.38958 1.7009,4.92787 0.7743,1.28505 1.8233,2.3695 2.7792,3.51758 1.2229,1.33675 2.5176,2.58241 3.9755,3.65929 2.1547,1.40103 4.3785,2.70555 6.6569,3.89501 2.676,1.45828 5.6948,1.95755 8.6657,2.4402 3.1815,0.6141 6.41,0.86924 9.6416,1.0177 2.6288,0.10305 5.2562,0.17356 7.8811,-0.0206 2.5057,-0.26802 4.9751,-0.77711 7.4482,-1.24666 2.8659,-0.40892 5.6105,-1.27448 8.3429,-2.19856 2.944,-0.982 5.8726,-2.03719 8.7148,-3.28679 2.6918,-1.15133 5.2154,-2.6354 7.723,-4.13763 1.4625,-0.8908 2.7813,-2.03266 3.8953,-3.3306 0.9435,-1.00351 1.4093,-2.1753 1.6231,-3.51012 0.226,-1.5036 -0.513,-2.83364 -1.2228,-4.09633 -0.7972,-1.36187 -1.7836,-2.60025 -2.9071,-3.70462 -1.3286,-1.22153 -2.7065,-2.38511 -4.1974,-3.40286 -2.0662,-1.17745 -4.2475,-2.15215 -6.4287,-3.09562 -3.7797,-1.49181 -7.8012,-2.26907 -11.7914,-2.96368 -3.2107,-0.64913 -6.4586,-0.98655 -9.7249,-1.16382 -3.3219,-0.20376 -6.6398,0.006 -9.9434,0.34827 -2.8191,0.34271 -5.658,0.42394 -8.476,0.76898 -2.9216,0.36338 -5.8267,0.85627 -8.7056,1.47119 -2.1376,0.44371 -4.1677,1.2043 -6.1245,2.15876 -2.8014,1.29686 -4.9011,2.93352 -7.2561,4.76282 -0.9615,1.10588 -5.5927,3.82738 -0.3233,0.71654 -0.2397,0.0907 0.1504,0.0794 0.2079,0.0386 0.1652,-0.11707 0.2513,-0.318 0.3884,-0.46691 0.1895,-0.20568 0.3912,-0.39984 0.5906,-0.59589 0.8423,-0.82804 0.6807,-0.66151 1.61,-1.46561 0.3579,-0.24251 1.485,-0.86108 1.0738,-0.72755 -0.4886,0.1587 -1.8273,0.82476 -1.314,0.80555 0.6319,-0.0236 1.1352,-0.558 1.7105,-0.82039 0.626,-0.28549 1.2546,-0.56629 1.893,-0.82291 1.704,-0.68501 2.6449,-0.96546 4.3982,-1.54604 3.7113,-1.10794 7.5052,-1.92868 11.3498,-2.39318 3.2975,-0.35036 6.6166,-0.27392 9.9247,-0.40368 3.2257,-0.19431 6.4541,-0.32072 9.6846,-0.39221 2.8269,-0.17865 5.6501,-0.38548 8.4812,-0.48837 2.7509,-0.081 5.5032,-0.0913 8.2551,-0.0888 1.4456,-0.13764 2.7914,0.30969 4.1613,0.6782 1.1678,0.24233 2.119,0.97375 3.1874,1.45518 1.3314,0.53616 2.5001,1.37645 3.6864,2.16916 1.4009,0.84003 2.429,2.00883 3.3781,3.31211 1.2418,1.43553 2.1235,3.05911 2.705,4.85704 0.5065,1.99268 0.646,4.06381 0.5586,6.11216 -0.4262,2.58903 -1.9105,4.85826 -3.5247,6.87158 -0.2691,0.29982 -0.5266,0.6105 -0.8072,0.89947 -0.8056,0.82931 -1.6835,1.58936 -2.6656,2.20189 -0.3873,0.24154 -1.4427,1.05818 -1.1893,0.67858 0.2863,-0.42878 0.8652,-0.56078 1.2979,-0.84119 -3.1655,1.44928 -6.4825,2.56148 -9.8481,3.43935 -4.3534,1.21935 -8.8239,1.71592 -13.3176,2.03586 -3.9642,0.21682 -7.9362,0.39407 -11.8979,0.0803 -3.3916,-0.31798 -6.7628,-0.79063 -10.0759,-1.5856 -2.5959,-0.7117 -5.1055,-1.70542 -7.5755,-2.76762 -2.6431,-0.97687 -4.959,-2.56564 -7.213,-4.22092 -1.1841,-0.99595 -2.5204,-1.86926 -3.5513,-3.03832 -0.5081,-0.57618 -1.0165,-1.35321 -1.4503,-1.98117 -1.2837,-1.82232 -2.1116,-3.87406 -2.6785,-6.01586 -0.3848,-1.63163 -0.9389,-3.21599 -1.2445,-4.86529 -0.2855,-1.46587 -0.05,-2.87097 0.5779,-4.20608 0.5048,-0.71126 1.0711,-1.4155 1.7683,-1.95109 0.342,-0.26271 1.4914,-0.84691 1.0833,-0.70747 -0.5028,0.17176 -1.1498,0.32559 -1.3746,0.807 -0.2026,0.43379 0.8609,-0.41918 1.2913,-0.62875 2.7456,-1.31342 5.7284,-1.94527 8.7055,-2.47164 3.5934,-0.77766 7.2519,-1.02015 10.9149,-1.16972 3.9032,-0.1238 7.8088,-0.123 11.7134,-0.11485 2.6828,0.004 5.3656,0.0124 8.0484,0.0185 2.4267,0.0926 4.8306,0.50411 7.214,0.94919 2.5106,0.28445 4.9474,0.91477 7.3356,1.72021 2.1972,0.83696 4.4162,1.60124 6.6518,2.33011 2.0473,0.7185 4.0827,1.48439 6.0758,2.34384 1.2166,0.42963 2.2389,1.19163 3.2338,1.98744 1.3439,1.37554 1.5436,3.40202 1.7647,5.22034 0.1497,2.30849 -0.4412,4.58102 -1.1325,6.76441 -0.698,1.84801 -1.7459,3.54659 -2.9539,5.10226 -0.1993,0.2363 -0.3885,0.48146 -0.5979,0.70889 -0.6769,0.73547 -1.4779,1.41484 -2.3104,1.96742 -0.3575,0.23725 -1.4413,0.92586 -1.1064,0.65775 0.4156,-0.33263 0.9001,-0.56856 1.3501,-0.85285 -4.0896,1.89116 -8.6077,2.47184 -13.0043,3.24389 -4.579,0.82675 -9.2137,1.2047 -13.8569,1.39594 -3.0726,0.10446 -6.1473,0.0989 -9.2212,0.0893 -2.7302,0.0989 -5.3998,-0.40304 -8.0364,-1.05275 -2.6865,-0.67432 -5.2164,-1.7793 -7.6843,-3.01329 -1.955,-0.95922 -3.7708,-2.17345 -5.6303,-3.30144 0,0 -2.5835,1.67169 -2.5835,1.67169 v 0 c 1.8774,1.11273 3.6928,2.33793 5.6433,3.32099 2.4902,1.24537 5.0441,2.3567 7.7512,3.04896 2.6402,0.66894 5.3119,1.24216 8.0543,1.13125 3.0939,-3e-5 6.1886,-0.006 9.2809,-0.11674 4.6657,-0.19481 9.3225,-0.567 13.9242,-1.39705 4.3778,-0.76277 8.8752,-1.30529 12.9778,-3.10798 2.8602,-1.58996 5.8816,-2.94558 7.8965,-5.61784 1.1927,-1.58817 2.2291,-3.31455 2.8928,-5.19393 0.6756,-2.22758 1.2677,-4.5298 1.0679,-6.87713 -0.2327,-1.90357 -0.4582,-3.99849 -1.8394,-5.45479 -1.0184,-0.81081 -2.0425,-1.62266 -3.297,-2.04536 -2.0055,-0.86468 -4.0645,-1.60697 -6.1172,-2.34968 -2.2332,-0.73581 -4.4543,-1.49294 -6.6532,-2.32495 -2.3903,-0.81989 -4.8286,-1.48632 -7.3479,-1.76567 -2.3986,-0.44246 -4.8142,-0.85865 -7.2525,-0.99081 -2.6909,2.4e-4 -5.3818,-0.003 -8.0727,-0.003 -3.9208,0.0119 -7.8422,0.0294 -11.7618,0.13605 -3.6591,0.13116 -7.3198,0.31822 -10.9073,1.11414 -2.9836,0.50437 -5.9787,1.1041 -8.7391,2.39217 -2.9419,1.37433 -6.2113,2.83806 -7.9922,5.68257 -0.5901,1.40202 -0.7965,2.86504 -0.4896,4.37221 0.3143,1.65452 0.8799,3.24165 1.2704,4.87902 0.5979,2.16927 1.4425,4.24656 2.7496,6.09571 0.3642,0.53075 1.0408,1.54953 1.466,2.04052 1.0314,1.19097 2.4088,2.04824 3.599,3.05991 2.2643,1.67192 4.5903,3.2884 7.2463,4.28244 2.4848,1.07442 5.0051,2.08623 7.6205,2.79995 3.3248,0.80767 6.7106,1.28267 10.1148,1.61531 3.9853,0.348 7.9823,0.13358 11.9717,-0.0769 4.4894,-0.31383 8.9639,-0.75036 13.3156,-1.9671 3.3706,-0.84175 6.6797,-1.9607 9.8589,-3.36545 3.1326,-1.71892 6.3375,-3.17217 8.5691,-6.05409 1.6041,-2.08346 3.0901,-4.40309 3.4613,-7.05546 0.066,-2.08359 -0.072,-4.18806 -0.6045,-6.21101 -0.5986,-1.82359 -1.4809,-3.48745 -2.7481,-4.94289 -0.9587,-1.34197 -1.993,-2.5508 -3.4266,-3.41223 -1.1958,-0.80066 -2.3677,-1.66346 -3.6988,-2.22827 -1.0973,-0.45685 -2.0435,-1.2193 -3.2171,-1.49286 -1.3997,-0.35729 -2.7664,-0.87421 -4.2417,-0.71982 -2.7634,0.0164 -5.5271,0.0332 -8.2899,0.10234 -2.8317,0.0874 -5.6554,0.2794 -8.4801,0.49204 -3.2339,0.0709 -6.466,0.19606 -9.6949,0.39191 -3.3126,0.15335 -6.6372,0.048 -9.9414,0.38793 -3.8745,0.44241 -7.689,1.2882 -11.4319,2.37995 -4.5597,1.48294 -9.0871,3.19601 -12.9696,6.0983 -0.3151,0.27842 -3.5096,2.80982 -2.4095,3.28946 2.0896,-1.18274 3.9363,-2.18554 5.6641,-3.82537 0.7599,-0.59486 1.5046,-1.21222 2.2947,-1.76734 1.1991,-0.84248 1.5457,-0.91816 -1.0894,0.53644 -0.2564,0.14156 0.5044,-0.29815 0.7566,-0.44725 1.9424,-0.98951 3.9661,-1.77588 6.1019,-2.23813 2.8746,-0.6386 5.7803,-1.13782 8.7023,-1.50315 2.8174,-0.36095 5.6578,-0.42318 8.4769,-0.77669 3.2916,-0.36041 6.5965,-0.59391 9.9091,-0.38261 3.2694,0.15753 6.5229,0.47794 9.7389,1.11027 3.966,0.65881 7.9646,1.41954 11.7048,2.93523 2.1644,0.92824 4.3119,1.9227 6.3753,3.05922 1.473,1.01179 2.8384,2.15583 4.1524,3.36735 1.1073,1.079 2.0793,2.29214 2.863,3.62784 0.6795,1.21234 1.3671,2.47472 1.1094,3.9153 -0.2417,1.28487 -0.7684,2.39067 -1.683,3.34719 -1.155,1.2495 -2.4397,2.38562 -3.92,3.23816 -0.2627,0.15573 -1.0549,0.61611 -0.7882,0.4672 0.6295,-0.35158 1.2613,-0.69982 1.8769,-1.07524 0.2661,-0.1623 -0.5493,0.29485 -0.8276,0.43529 -0.5642,0.2848 -1.1292,0.56843 -1.6997,0.84061 -0.3251,0.15512 -0.6563,0.29739 -0.9844,0.44609 -2.8302,1.28627 -5.766,2.34299 -8.7143,3.32277 -2.7201,0.92477 -5.4453,1.82702 -8.3032,2.22207 -2.4647,0.46419 -4.9229,0.97674 -7.4167,1.2654 -2.6277,0.21008 -5.2565,0.1788 -7.8905,0.0733 -3.2265,-0.13814 -6.451,-0.377 -9.6284,-0.9847 -2.9413,-0.45902 -5.923,-0.9584 -8.5774,-2.38278 -2.2742,-1.15676 -4.486,-2.45221 -6.6083,-3.86837 -1.4446,-1.05524 -2.7311,-2.26991 -3.9291,-3.59881 -0.9397,-1.13453 -1.9689,-2.20723 -2.7446,-3.46551 -0.8096,-1.50183 -1.4173,-3.12349 -1.672,-4.81611 -0.2881,-2.12418 -0.7318,-4.25053 -0.6686,-6.40246 0,0 -2.7972,1.42526 -2.7972,1.42526 z"
         id="path174628"
         style="fill:#000000;stroke:none;stroke-width:0.499999;stroke-dasharray:3, 0.750001;stop-color:#000000" />
      <path
         d="m 1922.7772,477.69065 c 2.764,-0.27406 5.5528,-0.0553 8.3271,-0.0993 2.9825,-0.12673 5.9643,-0.25254 8.9489,-0.31729 2.6894,-0.0634 5.3359,-0.4785 7.8996,-1.28074 1.7619,-0.73715 3.4197,-1.68682 5.1541,-2.48274 1.4882,-0.75184 2.9986,-1.44579 4.5274,-2.10839 1.0811,-0.49601 2.23,-0.81679 3.3011,-1.3335 2.6245,-1.19885 4.4945,-2.83427 6.3718,-4.90212 1.3693,-1.63049 2.4917,-3.40762 3.4811,-5.28595 0.7233,-1.38814 1.2416,-2.8652 1.8709,-4.29506 0.5395,-1.27405 0.7696,-2.6098 0.8583,-3.9796 0.1249,-1.60872 0.043,-3.20341 -0.174,-4.79848 -0.3103,-1.53993 -1.247,-0.40989 -2.9142,1.36488 -0.2145,0.22836 0.054,0.62431 0.074,0.93691 0.072,1.08114 0.095,1.74469 0.1444,2.84388 0.1157,2.73571 -0.2136,5.39988 -1.0601,7.99714 -0.6802,1.85584 -1.5958,3.62447 -2.9765,5.04986 -1.9712,1.5935 -4.0255,3.0679 -6.1304,4.47918 -5.0504,3.01739 8.4207,-4.85793 -3.0247,1.79726 -0.6551,0.38098 1.31,-0.76255 1.9649,-1.14384 0,0 -2.4184,1.95535 -2.4184,1.95535 v 0 c 1.1141,-0.64172 2.2283,-1.28347 3.3425,-1.92522 -0.6056,0.34423 -2.418,1.38415 -1.8166,1.03265 4.6911,-2.74212 2.2458,-1.21463 4.792,-2.82861 2.12,-1.43063 4.2206,-2.90552 6.1647,-4.56941 1.3277,-1.48611 2.2198,-3.2902 2.8865,-5.15966 0.8127,-2.63097 1.1043,-5.32551 0.9888,-8.08088 -0.012,-0.33798 -0.092,-2.46483 -0.1049,-2.86832 -0.01,-0.31928 0.2916,-0.99396 -0.026,-0.95795 -3.6012,0.40862 -2.8941,0.5553 -2.6495,1.53434 0.2357,1.5716 0.285,3.14796 0.1524,4.73369 -0.1133,1.33842 -0.3625,2.64906 -0.9065,3.8876 -0.6056,1.42854 -1.1456,2.88571 -1.8629,4.26477 -0.984,1.86023 -2.1279,3.60968 -3.5037,5.20917 -0.8179,0.88146 -1.6371,1.72791 -2.5851,2.47165 -0.1966,0.15431 -0.827,0.55576 -0.6015,0.44776 0.723,-0.34639 1.4021,-0.77809 2.1031,-1.16713 -1.0528,0.56951 -2.2116,0.86818 -3.3023,1.35641 -1.5168,0.6889 -3.0595,1.31823 -4.5311,2.10765 -1.7473,0.78774 -3.4172,1.72362 -5.156,2.52992 -2.5486,0.83904 -5.1815,1.2996 -7.8695,1.36935 -2.987,0.0593 -5.9717,0.17237 -8.9555,0.32247 -2.7574,0.066 -5.5178,-0.14536 -8.2701,0.0119 0,0 -2.5146,1.88047 -2.5146,1.88047 z"
         id="path174636"
         style="fill:#000000;stroke:none;stroke-width:0.499999;stroke-dasharray:3, 0.750001;stop-color:#000000" />
      <path
         d="m 1956.5713,427.99044 c -0.7804,2.1811 -1.5898,4.35129 -2.3377,6.54397 -0.6374,2.15413 -1.5499,4.20952 -2.3036,6.32137 -0.592,1.39237 -1.0377,2.83837 -1.611,4.23807 -0.6067,1.29493 -1.1615,2.59496 -1.8241,3.86276 -0.7005,1.34887 -1.4801,2.63692 -2.3961,3.85075 -0.9106,1.29939 -2.2114,2.1863 -3.5074,3.06173 -0.2273,0.15663 -0.9257,0.59944 -0.6819,0.4699 4.6192,-2.45473 -0.9523,0.29511 -1.8385,0.67553 -1.5092,0.67898 -3.0591,1.26585 -4.6255,1.79861 -1.4081,0.51742 -2.8186,1.01844 -4.2422,1.49053 -1.339,0.47702 -2.7367,0.67318 -4.1468,0.77214 -0.2069,0.01 -0.4138,0.0206 -0.6209,0.0293 -1.1109,0.0462 0.08,0.0114 -0.6917,-0.0135 -0.9635,-0.0311 -1.5923,1.09138 -2.3378,1.70257 -0.1139,0.0933 0.2865,-0.0682 0.4298,-0.10224 1.9231,-0.14777 3.8231,-0.44243 5.7099,-0.84246 1.7203,-0.46553 3.4099,-1.04129 5.0817,-1.65716 1.8464,-0.71871 3.5517,-1.81332 5.0893,-3.05874 1.3347,-0.78507 2.3219,-1.97226 3.4356,-3.02125 1.2512,-1.12152 2.1102,-2.56752 3.1631,-3.85583 0.513,-0.88852 1.213,-1.6632 1.7563,-2.52883 0.073,-0.11616 0.7136,-1.35613 0.7729,-1.47027 0.8077,-1.59456 1.3753,-3.28284 2.0392,-4.93725 0.608,-1.56795 1.0722,-3.20413 1.8767,-4.68726 0.5492,-1.05934 0.881,-2.20257 1.4965,-3.22953 0.9402,-1.94111 2.0302,-3.80198 3.2044,-5.60972 0.6233,-0.91001 1.1668,-1.9096 1.8891,-2.75055 0.065,-0.0756 0.3107,-0.24607 0.2219,-0.20061 -1.0154,0.51993 -2.0067,1.0855 -3.0101,1.62827 -1.4053,2.9986 -2.6557,6.0669 -3.952,9.11437 -1.2696,2.88689 -2.394,5.83424 -3.5941,8.74993 -0.7402,1.71865 -1.5319,3.41153 -2.3141,5.1114 -0.1241,0.24863 -0.2362,0.50361 -0.3724,0.74586 -0.7124,1.26778 -0.096,-0.0241 -0.7464,1.25693 -0.2981,0.58725 -0.4957,1.19576 -0.8075,1.77655 -0.5572,1.12675 -1.3624,2.09216 -2.2624,2.9587 0.8445,-0.18182 -2.5013,1.65836 -1.717,1.19563 3.9382,-2.32368 1.4681,-0.89189 0.4565,-0.41865 -1.4665,0.69135 -3.0111,1.14326 -4.6043,1.41777 -1.5767,0.33215 -3.1755,0.5298 -4.7532,0.85346 -1.3643,0.27165 -2.7305,0.55168 -4.0655,0.9457 -1.1325,0.33425 -2.3122,0.41804 -3.4652,0.65421 -1.4618,0.30559 -2.9681,0.13407 -4.4155,-0.162 -1.8701,-0.35177 -3.6246,-1.1081 -5.3716,-1.83634 -1.8378,-0.78706 -3.4078,-2.02838 -4.9964,-3.21514 -1.3502,-0.98584 -2.6535,-2.01499 -3.9032,-3.12402 -1.4452,-1.25613 -2.4993,-2.84305 -3.6269,-4.36819 -1.2629,-1.54331 -2.3296,-3.22955 -3.5508,-4.80383 -0.9053,-1.20583 -1.7599,-2.44699 -2.6206,-3.68464 -0.8505,-1.03751 -1.5447,-2.18659 -2.3123,-3.28326 -0.9918,-1.38388 -1.3448,-3.03393 -1.6846,-4.66876 -0.4157,-2.18953 -0.5099,-4.41994 -0.5673,-6.64237 -0.021,-0.87614 -0.021,-1.75252 -0.021,-2.62884 0,0 -2.7707,1.41345 -2.7707,1.41345 v 0 c 0.01,0.87599 0.017,1.752 0.04,2.62774 0.077,2.23689 0.1776,4.48233 0.6002,6.68581 0.3465,1.67852 0.6924,3.37608 1.7128,4.79766 0.7684,1.09583 1.4701,2.23896 2.3084,3.28515 0.8696,1.23875 1.7495,2.4692 2.6557,3.68157 1.2171,1.57422 2.2962,3.24826 3.5455,4.79846 1.1352,1.54506 2.2158,3.13539 3.6487,4.43113 1.2569,1.11546 2.5649,2.15408 3.9266,3.14087 1.6122,1.19481 3.1958,2.4547 5.0437,3.27488 1.7595,0.73192 3.5135,1.52408 5.3957,1.88751 1.4555,0.33539 2.9852,0.5392 4.4704,0.2843 1.1574,-0.24879 2.3332,-0.3506 3.4838,-0.63466 1.3305,-0.40918 2.6888,-0.71485 4.0564,-0.97266 1.5787,-0.33721 3.1781,-0.53491 4.757,-0.87437 1.6097,-0.24312 3.1696,-0.66233 4.653,-1.34668 2.3068,-1.0774 4.6817,-2.18408 6.5765,-3.90379 0.8896,-0.90019 1.6719,-1.90436 2.2232,-3.05043 0.6182,-1.27117 1.1922,-2.55704 1.9033,-3.78257 0.7854,-1.6959 1.5632,-3.39246 2.2881,-5.11553 1.1614,-2.90814 2.2715,-5.83785 3.52,-8.7103 1.3088,-3.08676 2.6086,-6.17624 4.0787,-9.18974 -0.9157,0.30427 -1.848,0.56282 -2.7472,0.91286 -0.3181,0.1238 -1.7389,2.64817 -2.02,2.97567 -1.1656,1.82941 -2.2541,3.70533 -3.2358,5.64012 -0.5805,1.04632 -0.9364,2.18779 -1.4953,3.2453 -0.7392,1.51511 -1.2321,3.13275 -1.8383,4.70292 -0.6505,1.6542 -1.2538,3.32546 -2.0634,4.91233 -0.7378,1.38975 -1.6447,2.66255 -2.5543,3.94525 -1.0212,1.30485 -1.9303,2.70328 -3.177,3.81641 -1.1054,1.06733 -2.1514,2.1918 -3.4718,3.00466 -0.4575,0.35277 -0.3379,0.26815 -0.7902,0.58872 -0.1182,0.0838 -0.484,0.31782 -0.3562,0.24937 4.5057,-2.41387 2.4312,-1.29468 1.4213,-0.87005 -1.6616,0.66119 -3.3753,1.19478 -5.0843,1.71817 -1.8628,0.41979 -3.7469,0.74242 -5.6577,0.8177 -2.2251,0.27397 -5.0588,2.69436 -1.7924,2.11939 1.4228,-0.0819 2.8365,-0.2377 4.1935,-0.70451 1.419,-0.49347 2.8505,-0.94255 4.2484,-1.49823 1.5793,-0.50927 3.1334,-1.1077 4.6483,-1.78424 2.7367,-1.15043 5.4044,-2.49772 7.8449,-4.20203 1.2967,-0.90123 2.5707,-1.83007 3.4691,-3.15733 0.9037,-1.23595 1.6784,-2.5455 2.3891,-3.90133 0.6625,-1.26961 1.1897,-2.5916 1.8018,-3.88559 0.5628,-1.40536 1.0259,-2.84832 1.6025,-4.24863 0.7492,-2.10211 1.6071,-4.16616 2.2565,-6.30399 0.7595,-2.22284 1.6224,-4.40748 2.3931,-6.62535 0,0 -2.8253,1.3798 -2.8253,1.3798 z"
         id="path174642"
         style="fill:#000000;stroke:none;stroke-width:0.499999;stroke-dasharray:3, 0.750001;stop-color:#000000" />
      <path
         d="m 1889.486,421.85589 c 2.1938,0.66387 4.3281,1.49966 6.4721,2.305 2.0384,0.75057 4.0504,1.57144 6.0832,2.335 2.1099,0.84021 4.1981,1.73773 6.3162,2.55699 2.0515,0.75769 4.0326,1.68838 6.037,2.56021 2.1541,0.98031 4.4029,1.71122 6.7098,2.226 2.7908,0.68177 5.6678,0.86068 8.5267,1.01052 2.7458,0.12033 5.495,0.11141 8.2427,0.11559 2.3922,-0.01 4.7418,-0.4519 7.0851,-0.88058 2.0571,-0.37439 4.0361,-1.07291 5.9864,-1.81163 2.5371,-1.04413 4.6925,-2.72568 6.8232,-4.40161 1.4732,-1.11561 2.6706,-2.48314 3.8328,-3.90231 0,0 -2.8615,1.21962 -2.8615,1.21962 v 0 c -1.1467,1.41679 -2.3927,2.72712 -3.8509,3.83392 -0.7025,0.54129 -1.4034,1.08895 -2.1131,1.62028 -0.2223,0.16648 -0.9314,0.60077 -0.6811,0.48014 0.4524,-0.21809 3.2347,-1.77496 1.2957,-0.76896 -1.9388,0.77346 -3.9252,1.47162 -5.9761,1.87788 -2.3369,0.42577 -4.6759,0.89022 -7.0604,0.93155 -2.7474,0.003 -5.4958,0.005 -8.2417,-0.0978 -2.8437,-0.13348 -5.7064,-0.29942 -8.4817,-0.9803 -2.2954,-0.49012 -4.5291,-1.21153 -6.6709,-2.17821 -2.0004,-0.88969 -3.9928,-1.80655 -6.0445,-2.57318 -2.1227,-0.80502 -4.2068,-1.7149 -6.3124,-2.56312 -2.0402,-0.75153 -4.0474,-1.59624 -6.0971,-2.3254 -2.1417,-0.79174 -4.2668,-1.6279 -6.4299,-2.3617 0,0 -2.5896,1.77207 -2.5896,1.77207 z"
         id="path174644"
         style="fill:#000000;stroke:none;stroke-width:0.499999;stroke-dasharray:3, 0.750001;stop-color:#000000" />
      <path
         d="m 1893.259,422.33924 c -1.4222,-1.35015 -2.466,-3.01644 -3.3543,-4.74909 -1.0548,-1.81917 -1.517,-3.7968 -1.9143,-5.83467 -0.197,-1.00759 -0.325,-2.02621 -0.4703,-3.04189 -0.041,-0.28742 -0.091,-0.73324 -0.1569,-0.69461 -0.9717,0.56795 -1.88,1.23801 -2.8201,1.85703 0.2661,2.56707 0.7429,5.10686 1.0674,7.66794 0.3055,2.3027 0.7246,4.58129 1.1639,6.86044 0.2837,1.31336 0.7198,2.54664 1.5215,3.63045 0.709,0.92237 1.567,1.68392 2.4344,2.44764 0.7671,0.6047 1.5597,1.17617 2.3433,1.75929 0.3101,0.29348 0.1978,0.14041 0.3668,0.43569 0,0 2.7283,-1.58105 2.7283,-1.58105 v 0 c -0.2304,-0.37229 -0.088,-0.18944 -0.4438,-0.53514 -0.784,-0.56939 -1.5591,-1.14882 -2.332,-1.73353 -0.8505,-0.75112 -1.719,-1.47195 -2.4081,-2.38709 -0.7798,-1.04283 -1.1876,-2.23512 -1.4713,-3.49973 -0.4554,-2.26269 -0.9012,-4.52289 -1.2097,-6.81265 -0.3279,-2.546 -0.8118,-5.08471 -0.9427,-7.6482 -0.9124,0.3747 -1.8331,0.72961 -2.7371,1.12413 -0.021,0.009 0.044,0.0262 0.05,0.0487 0.045,0.16754 0.071,0.3397 0.1006,0.51065 0.1746,1.01227 0.2983,2.03322 0.5011,3.04078 0.3926,2.0711 0.8734,4.07408 1.9415,5.92082 0.9153,1.75802 1.984,3.43461 3.3708,4.86407 0,0 2.6711,-1.64999 2.6711,-1.64999 z"
         id="path174646"
         style="fill:#000000;stroke:none;stroke-width:0.499999;stroke-dasharray:3, 0.750001;stop-color:#000000" />
      <path
         d="m 1955.2286,428.44714 c 1.5532,-1.41647 3.2199,-2.69698 4.8582,-4.01203 1.527,-1.42992 3.0152,-2.91992 4.4298,-4.46334 0.8851,-1.03267 1.5951,-2.15516 1.9882,-3.45887 0.3044,-1.07987 -0.1503,-2.04994 -0.6529,-2.98543 -0.914,-1.65507 -2.1901,-3.07983 -3.4241,-4.50196 -0.2297,-0.2749 -0.4594,-0.54978 -0.6891,-0.82468 0,0 -2.6457,1.58975 -2.6457,1.58975 v 0 c 0.2321,0.27535 0.4642,0.5507 0.6964,0.82605 1.2155,1.40409 2.4612,2.82533 3.353,4.46236 0.462,0.88162 0.8547,1.76834 0.5282,2.76968 -0.4204,1.25238 -1.144,2.33352 -2.0175,3.32161 -1.4266,1.51519 -2.8589,3.03924 -4.4231,4.41222 -1.6503,1.33091 -3.3247,2.63091 -4.9116,4.03794 0,0 2.9102,-1.1733 2.9102,-1.1733 z"
         id="path174648"
         style="fill:#000000;stroke:none;stroke-width:0.499999;stroke-dasharray:3, 0.750001;stop-color:#000000" />
      <path
         d="m 1961.5739,424.68932 c -0.6278,0.37348 -1.3079,0.6705 -1.8834,1.12048 -0.3502,0.27385 0.7946,-0.39949 1.1986,-0.58499 2.1714,-0.99706 4.4221,-1.74818 6.6889,-2.49206 2.3558,-0.76816 4.7831,-1.28005 7.2467,-1.52638 1.4538,-0.16796 2.8912,-0.0958 4.3316,0.12216 1.3556,0.21463 2.5171,0.90212 3.5342,1.79387 1.0138,1.4645 1.4226,3.18175 1.5234,4.93498 0.1064,2.46603 -1.4225,4.47699 -2.9019,6.3005 -1.5928,1.79922 -3.5061,3.27985 -5.4829,4.63185 -0.4673,0.31962 -1.039,0.51274 -1.4209,0.93075 -0.3281,0.35912 0.8356,-0.49832 1.2534,-0.74747 -1.7825,1.03296 -3.7013,1.79268 -5.622,2.52325 -1.6028,0.59666 -3.1946,1.22182 -4.8025,1.8053 -2.0696,0.88069 -4.2759,1.31051 -6.4639,1.77499 -1.5282,0.35753 -3.077,0.60023 -4.6268,0.83777 -0.7941,0.63043 -1.6632,1.17645 -2.3822,1.89127 -0.104,0.1034 0.2915,0.0349 0.438,0.0416 0.2284,0.0106 0.4572,0.008 0.6858,0.0103 1.0761,0.008 2.1526,-0.005 3.2286,-0.0109 3.0218,-0.0143 5.9876,-0.4944 8.9304,-1.13384 3.5004,-1.0445 6.6915,-3.01458 9.6625,-5.11024 1.9798,-1.53728 3.9685,-3.0624 5.8214,-4.7524 1.9227,-1.64814 3.6809,-3.44619 4.9513,-5.64483 0.7752,-1.82824 1.3529,-3.84468 0.9658,-5.84181 -0.085,-0.43588 -0.2344,-0.85649 -0.3516,-1.28474 -1.1664,-2.74553 -1.8949,-3.69361 -4.7769,-4.55316 -3.6733,-0.70501 -7.3481,-0.0249 -10.8406,1.15205 -3.1524,1.25746 -6.1106,2.93497 -8.9205,4.831 -0.1888,0.15936 -1.9799,1.34612 -1.9696,1.45251 0.063,0.65746 0.8395,0.15658 0.9992,0.0994 3.3466,-1.50312 6.8093,-2.7524 10.3125,-3.83711 2.6019,-0.76703 5.2833,-1.24722 7.9956,-1.00233 1.4438,0.26578 2.7539,0.94711 3.8639,1.89267 1.13,1.55808 1.3993,3.50391 1.434,5.38174 -0.042,2.90213 -1.4956,4.59345 -3.4061,6.58936 -1.581,1.50054 -3.283,2.88547 -5.1082,4.08033 -0.4366,0.28585 -1.0186,0.40277 -1.3351,0.81767 -0.3044,0.39899 0.8639,-0.51086 1.2959,-0.76629 -2.5127,1.15869 -5.0867,2.18596 -7.6643,3.19352 -2.3931,0.85479 -4.7961,1.67619 -7.2267,2.41723 -1.7855,0.50793 -3.5731,1.00561 -5.3645,1.49178 -1.1647,0.31697 -2.3256,0.64643 -3.4937,0.95184 -0.2572,0.27432 -1.7208,0.29109 -2.0207,0.52268 -2.5863,1.99768 -3.349,1.94493 -1.8608,1.85949 3.2529,-0.42661 6.4848,-1.0237 9.6886,-1.72934 2.0282,-0.49279 4.1125,-0.87993 6.0359,-1.72156 1.4929,-0.65323 4.2253,-2.35837 5.0359,-2.8307 0.9829,-0.69699 2.0531,-1.3185 2.9235,-2.16414 0.058,-0.0568 0.7327,-0.66775 0.4779,-0.97197 -0.1436,-0.17145 -0.4065,-0.18674 -0.6098,-0.28011 -3.3124,0.5974 -6.5676,1.54688 -9.7886,2.52246 -2.1934,0.66645 -4.375,1.28322 -5.7992,3.28771 -0.1555,0.21899 0.5366,-0.028 0.8048,-0.042 2.8949,-0.6319 5.6704,-1.76969 8.3636,-2.98984 2.5762,-1.27632 5.0466,-2.73045 7.2295,-4.59721 1.1122,-1.0994 2.0758,-2.32746 2.9534,-3.61826 0.9453,-1.42857 2.1265,-2.67311 3.185,-4.0123 0.8916,-1.18258 1.4851,-2.53508 1.8855,-3.95227 0.268,-1.17938 0.3861,-2.40445 0.2612,-3.6086 -0.3305,-1.92283 0.1292,-2.44919 -2.9765,0.67035 -0.1883,0.18915 0.03,0.53327 0.029,0.80018 0,0.36494 -0.024,0.72946 -0.037,1.09419 -0.2278,2.72364 -0.8788,5.40149 -2.0739,7.8595 -0.7603,1.73087 -1.8695,3.24625 -3.1387,4.63026 0.2789,0.0859 -0.4,0.28429 -0.2981,0.42367 0.3394,0.46435 0.5468,0.2635 0.9863,0.008 3.6334,-2.10889 2.5974,-1.29122 4.5428,-3.04734 2.1865,-2.42117 3.335,-5.45748 4.1238,-8.57054 0.1642,-0.86654 0.3612,-1.74172 0.4187,-2.62509 0.01,-0.10721 0.084,-0.36079 -0.016,-0.32189 -3.0544,1.18546 -2.5874,0.5951 -3.387,2.19392 -1.4897,3.08481 -2.7402,6.27103 -4.1987,9.37046 -1.0017,2.37405 -1.6969,3.20699 2.539,0.18317 0.1569,-0.11202 1.3628,-2.23134 1.4328,-2.35191 1.2917,-2.39762 2.277,-4.96541 2.696,-7.66167 0.1101,-1.68378 -0.505,-2.21041 -2.0584,-2.57177 -2.7218,-0.52081 -5.5069,-0.13685 -8.187,0.42703 -2.4511,0.60884 -4.8432,1.40759 -7.1743,2.37535 -1.2741,0.5936 -2.3373,1.04019 -3.2529,2.35032 -0.2374,0.33973 0.7693,-0.30892 1.1576,-0.45392 0.5474,-0.20441 1.0996,-0.39613 1.6494,-0.5942 2.9371,-1.0469 5.9059,-2.01776 8.9564,-2.67576 1.0879,-0.31088 2.1295,-0.62497 3.2662,-0.56967 1.0444,0.13171 1.8471,0.7851 2.461,1.60044 0.6518,1.0201 0.7055,2.02414 0.4375,3.16606 -0.5657,2.0235 -1.6936,3.80462 -2.8786,5.51513 -1.3828,2.67727 -3.2675,4.47421 -5.5473,6.37924 -1.3668,1.10199 -2.7998,2.11349 -4.3026,3.02096 -0.4615,0.27863 -0.8701,0.90754 -1.4001,0.80925 -0.6619,-0.12271 3.8224,-1.88299 0.016,-0.31163 -2.5366,0.977 -5.2066,1.55298 -7.8748,2.03528 -1.5015,0.33565 -3.0723,0.50441 -4.4719,1.18335 -0.5794,0.62122 -1.6212,1.02219 -1.7385,1.8636 -0.071,0.51136 1.0192,-0.17188 1.5202,-0.2966 0.8671,-0.21585 1.7252,-0.46715 2.5809,-0.72438 2.9912,-0.89916 5.9062,-1.99559 8.8359,-3.07327 4.117,-1.64319 8.3309,-3.4472 11.7966,-6.26763 2.0879,-1.73006 3.7392,-3.88255 5.5026,-5.92061 1.5645,-1.77575 2.9746,-3.67522 4.4406,-5.52998 -0.7477,0.5038 0.9482,-0.94728 0.6316,-0.81417 -1.0248,0.43074 -2.0447,0.88852 -2.9986,1.45918 -0.2369,0.14168 -2.2395,2.96859 -2.3987,3.17695 -0.9559,1.27596 -1.7816,2.65502 -2.8561,3.84017 -0.1721,0.18989 -0.7851,0.64696 -0.5569,0.53017 2.3013,-1.17832 1.9655,-0.75742 2.6492,-1.74641 0.6253,-2.49224 1.3591,-4.96869 1.6346,-7.52996 0.051,-2.01626 -1.3268,-2.12572 -2.9666,-2.46351 -3.4858,-0.47173 -7.0042,-0.62765 -10.5151,-0.7888 -0.2839,-0.0302 -0.5737,-0.0257 -0.8517,-0.0906 -0.045,-0.0106 -0.044,-0.0824 -0.066,-0.12367 -0.6366,0.50049 -1.613,0.74806 -1.9097,1.50146 -0.188,0.47736 0.9852,-0.28723 1.4819,-0.41561 1.3422,-0.34689 2.6944,-0.65328 4.0411,-0.98213 2.6463,-0.63995 5.2984,-1.27516 7.9964,-1.65616 1.0532,-0.0799 2.0832,-0.014 2.6702,0.9506 0.5052,1.49455 0.4128,3.09181 0.2785,4.63788 -0.2152,1.60197 -0.7414,3.13073 -1.1288,4.69363 0,0 2.8145,-1.34917 2.8145,-1.34917 v 0 c 0.3874,-1.57099 0.9005,-3.11457 1.0885,-4.72887 0.131,-1.60959 0.2051,-3.2789 -0.3411,-4.82589 -0.6476,-1.08191 -1.6749,-1.30937 -2.8914,-1.24138 -2.7358,0.38516 -5.4199,1.0509 -8.1029,1.69881 -3.9348,0.95568 -0.2452,0.0685 -4.0034,0.9474 -0.4847,0.11335 -1.008,0.12319 -1.4525,0.34724 -1.1414,0.57518 -2.2483,1.23901 -3.2558,2.02546 -0.3191,0.24898 1.7849,0.97901 1.1449,0.40333 3.4976,0.11039 7.0041,0.25673 10.4711,0.75692 1.5205,0.32258 2.7543,0.21561 2.7256,2.07931 -0.2616,2.57831 -1.0159,5.06095 -1.667,7.56102 0.033,0.2262 -0.1204,0.74052 0.1,0.67856 3.3414,-0.94092 4.3746,-3.36029 6.2504,-5.90458 1.6265,-2.1018 0.5682,-0.7243 1.9747,-2.57524 0.175,-0.23035 0.8117,-0.73853 0.5265,-0.68998 -2.3976,0.4082 -2.4129,0.59695 -3.3633,1.85819 -1.4352,1.86627 -2.8719,3.7306 -4.4209,5.50556 -1.7438,2.04155 -3.4201,4.16007 -5.5163,5.8633 -1.7974,1.38972 -1.2293,0.85585 0.3945,0.0414 0.4317,-0.21651 -0.8421,0.47305 -1.2692,0.6985 -1.8667,0.98542 -3.7993,1.83457 -5.7727,2.58353 -2.9168,1.08177 -5.8152,2.18802 -8.7992,3.07559 -0.8264,0.2458 -1.6568,0.47972 -2.4937,0.68686 -0.4776,0.11822 -1.0047,0.0742 -1.4475,0.28866 -1.1338,0.54925 -2.1488,1.31596 -3.2232,1.97393 1.3201,-0.87813 2.9956,-0.93703 4.4864,-1.33139 2.6768,-0.46966 5.3587,-1.02669 7.9098,-1.98197 3.9424,-1.55913 7.563,-3.95565 10.9001,-6.54677 0.977,-0.82608 1.6813,-1.37898 2.5683,-2.28639 1.2078,-1.23558 2.0774,-2.73714 2.9933,-4.1887 1.1867,-1.75239 2.3183,-3.57407 2.8662,-5.64047 0.2532,-1.23036 0.1307,-2.31926 -0.5566,-3.40455 -0.6463,-0.88614 -1.4986,-1.60636 -2.5993,-1.83515 -1.179,-0.0941 -2.2379,0.12623 -3.3555,0.52882 -3.0747,0.65583 -6.0616,1.64531 -9.0271,2.68031 -0.5399,0.18759 -1.0809,0.37198 -1.6197,0.56274 -0.3718,0.13161 -0.7792,0.19251 -1.1117,0.40437 -5.6671,3.61034 -2.9562,2.17387 -1.6445,1.51463 2.3281,-1.00388 4.7266,-1.81255 7.1804,-2.45327 2.6313,-0.57753 5.3712,-1.00759 8.0516,-0.4881 1.4417,0.26844 1.9445,0.57758 1.8348,2.15643 -0.4117,2.65798 -1.3926,5.18726 -2.6986,7.53316 -0.2694,0.4431 -0.525,0.89496 -0.8083,1.32932 -0.224,0.34335 -1.1196,0.95272 -0.7126,1.00235 2.5781,0.31443 2.4386,-1.14467 3.1183,-2.66827 1.4239,-3.12176 2.6426,-6.33677 4.2594,-9.36728 0.1376,-0.20725 0.6551,-0.6776 0.4127,-0.62177 -0.9428,0.21717 -1.8134,0.68908 -2.6687,1.14141 -0.077,0.0406 0.024,0.17309 0.019,0.25982 -0.046,0.86418 -0.2313,1.71953 -0.3939,2.56614 -0.7767,3.08076 -1.9387,6.07325 -4.1893,8.39653 -0.3539,0.29895 -1.5233,0.93604 -1.0617,0.89686 4.7665,-0.40463 0.8876,-1.70913 1.2637,-0.2861 0.04,0.1496 0.3287,-0.9943 0.2905,-0.36208 1.2366,-1.40721 2.2761,-2.96627 3.0381,-4.68416 1.1574,-2.51343 1.8127,-5.22147 2.0406,-7.98089 0.017,-0.3742 0.042,-0.74813 0.05,-1.12263 0.01,-0.27024 0.2621,-0.82269 -0.01,-0.81089 -3.4822,0.15237 -2.8186,0.48554 -2.5849,2.20345 0.094,1.17258 -0.023,2.35918 -0.3078,3.50065 -0.4172,1.38411 -1.0275,2.69756 -1.929,3.83828 -1.0756,1.32916 -2.2181,2.60713 -3.1729,4.03072 -0.8898,1.26561 -1.8463,2.4878 -2.985,3.54221 -0.6397,0.53272 -1.283,1.04847 -1.9767,1.51062 -0.2581,0.17187 -1.0603,0.64177 -0.7854,0.49836 0.2819,-0.14708 3.3374,-1.90285 0.8195,-0.48828 -2.6546,1.24936 -5.412,2.35884 -8.2678,3.04694 -1.7802,0.26424 -0.7698,0.0177 -3.6006,1.88611 -0.1573,0.10387 0.349,-0.14314 0.5208,-0.22088 1.0312,-0.46678 2.0625,-0.92892 3.1696,-1.19806 3.1726,-0.99086 6.3868,-1.84623 9.6294,-2.57741 0.1166,-0.0446 0.2339,-0.18 0.35,-0.13383 0.1441,0.0573 -0.2934,0.52811 -0.5218,0.73779 -0.8837,0.81143 -1.9206,1.44238 -2.9108,2.10918 0.4733,-0.26265 0.9789,-0.47405 1.4198,-0.78798 0.3661,-0.26056 -0.7854,0.4382 -1.1933,0.62672 -1.9169,0.88609 -4.0139,1.28482 -6.0494,1.79144 -3.1578,0.71361 -6.3443,1.27908 -9.5549,1.6959 -1.5664,0.0536 -0.4213,-0.0723 -3.1821,1.91643 -0.1527,0.10999 0.3681,-0.0787 0.55,-0.12695 0.2224,-0.059 0.4393,-0.13718 0.6606,-0.20047 0.2898,-0.0829 0.5815,-0.15867 0.8723,-0.23799 1.1609,-0.29684 2.3164,-0.59061 3.4621,-0.91851 1.8003,-0.53146 3.6178,-1.00758 5.4213,-1.52799 2.434,-0.74046 4.8426,-1.54993 7.2415,-2.39874 2.5868,-1.01224 5.1622,-2.05242 7.7045,-3.16952 3.6646,-2.10741 7.3578,-4.16264 10.3348,-7.22516 2.0016,-2.14107 3.2883,-3.77267 3.3426,-6.82509 -0.065,-1.96797 -0.3734,-3.97558 -1.5396,-5.61729 -1.1347,-1.00941 -2.4956,-1.72101 -3.9872,-2.04121 -2.7517,-0.29469 -5.4837,0.1845 -8.1294,0.95033 -3.4781,1.06723 -6.9148,2.30265 -10.2538,3.74777 -0.2458,0.12925 -1.061,0.4317 -0.5335,0.65273 0.1113,0.0466 0.1838,-0.1565 0.2805,-0.22865 0.5449,-0.40669 1.1295,-0.75848 1.6694,-1.17242 0.4801,-0.31888 1.9698,-1.19092 1.4502,-0.94142 -0.6096,0.29279 -1.2123,0.60611 -1.7802,0.9733 -0.3451,0.22304 0.7389,-0.35933 1.1084,-0.53898 1.8266,-0.8881 0.8744,-0.44194 2.8649,-1.33462 3.429,-1.21861 7.0503,-1.93352 10.6842,-1.26891 2.8046,0.76663 3.4858,1.60888 4.6213,4.27651 0.1068,0.41516 0.2461,0.82331 0.3204,1.24553 0.3426,1.94604 -0.251,3.91115 -1.0505,5.66621 -1.3069,2.15529 -3.0815,3.92065 -4.987,5.55908 -1.8641,1.666 -3.8363,3.20164 -5.8272,4.71257 -0.3632,0.24842 -0.7188,0.50814 -1.0895,0.7452 -0.3809,0.24363 -1.5734,0.88847 -1.1641,0.6962 0.5094,-0.23932 1.0133,-0.50353 1.466,-0.83801 0.3423,-0.25289 -0.7489,0.40513 -1.1318,0.59105 -1.2516,0.60785 -1.1197,0.513 -2.4549,0.94191 -2.9253,0.65784 -5.8706,1.16721 -8.881,1.17946 -1.0618,-0.003 -2.1239,0 -3.1857,-0.013 -0.2204,-0.003 -0.4408,-0.009 -0.6612,-0.0124 -0.1297,-0.003 -0.2768,-0.0706 -0.3892,-0.006 -0.9455,0.54544 -1.8209,1.20404 -2.7314,1.80608 1.5453,-0.36844 3.1608,-0.44342 4.6945,-0.8826 2.1819,-0.47019 4.4024,-0.83815 6.4677,-1.72471 1.6075,-0.58016 3.2003,-1.19539 4.7985,-1.79867 1.951,-0.7099 3.8844,-1.50296 5.6975,-2.52042 3.8887,-2.24184 7.8436,-4.48148 10.819,-7.92694 1.509,-1.90757 3.0105,-3.97814 2.8547,-6.53026 -0.1404,-1.83267 -0.574,-3.61659 -1.6248,-5.15559 -1.0424,-0.93369 -2.2341,-1.67998 -3.6281,-1.9467 -1.4616,-0.224 -2.9166,-0.34597 -4.3951,-0.17087 -2.4977,0.22701 -4.9571,0.75343 -7.3466,1.51678 -3.935,1.28928 -7.8371,2.62742 -11.3218,4.93792 0,0 2.9252,-1.12446 2.9252,-1.12446 z"
         id="path174650"
         style="fill:#000000;stroke:none;stroke-width:0.499999;stroke-dasharray:3, 0.750001;stop-color:#000000" />
      <path
         d="m 1911.069,368.03898 c -2.6312,1.21807 -5.2269,2.58781 -7.5488,4.33496 -0.6369,0.4793 -1.966,1.65008 -2.5811,2.18374 -1.7689,1.73554 -3.2776,3.82479 -3.5926,6.33458 0.054,0.27403 0.054,0.56425 0.1607,0.82211 0.8255,1.98694 3.3186,2.94423 5.0802,3.8468 1.4572,0.96766 4.046,1.44122 5.2259,2.74249 0.1518,0.16748 0.2339,0.38693 0.3509,0.58039 0.01,0.25093 0.067,0.50596 0.021,0.75279 -0.3045,1.64256 -2.5623,4.05834 -3.6554,5.28794 -1.1661,1.25582 -2.4381,2.5038 -3.2236,4.05201 -0.4172,0.82217 -0.4977,1.26191 -0.7487,2.14027 -0.4912,2.60818 0.3931,5.0909 1.3763,7.46895 0.1612,0.37047 0.3224,0.74094 0.4836,1.11143 0,0 2.6804,-1.50886 2.6804,-1.50886 v 0 c -0.1634,-0.36669 -0.3268,-0.73337 -0.4903,-1.10006 -0.9651,-2.32127 -1.8021,-4.75149 -1.2633,-7.29141 0.2761,-0.89374 0.334,-1.23407 0.7808,-2.06529 0.814,-1.51461 2.0745,-2.73418 3.2174,-3.99317 1.174,-1.34842 3.4074,-3.68535 3.6023,-5.53077 0.031,-0.29628 -0.058,-0.59301 -0.087,-0.88953 -0.1386,-0.21995 -0.2418,-0.46657 -0.4157,-0.65982 -1.2549,-1.3948 -3.7582,-1.76101 -5.3025,-2.77304 -1.5767,-0.80484 -4.1813,-1.84698 -4.8865,-3.63284 -0.091,-0.22958 -0.081,-0.48696 -0.1219,-0.73043 0.3787,-2.41803 1.8791,-4.45701 3.626,-6.10775 0.758,-0.65296 1.7795,-1.55752 2.5823,-2.14588 0.4834,-0.3543 1.1054,-0.54422 1.4941,-1.00047 0.2967,-0.34819 -1.0677,0.22263 -1.2035,0.65945 -0.2171,0.69797 1.922,-1.32934 1.9825,-0.93715 0,0 2.4568,-1.95144 2.4568,-1.95144 z"
         id="path174666"
         style="fill:#000000;stroke:none;stroke-width:0.499999;stroke-dasharray:3, 0.750001;stop-color:#000000" />
      <path
         d="m 1930.4954,364.94635 c -2.1837,0.81002 -4.3305,1.72064 -6.451,2.68298 -1.8739,1.10577 -4.6266,2.23083 -5.4992,4.54157 -0.098,0.25943 -0.1309,0.53893 -0.1964,0.80838 -0.06,2.79345 2.3606,4.25159 4.4383,5.62063 1.6771,1.19435 4.3638,1.93717 5.5066,3.76745 0.1323,0.21199 0.195,0.46022 0.2925,0.69033 -0.01,0.23548 0.022,0.47424 -0.018,0.70641 -0.1804,1.05426 -1.2742,2.88194 -1.7737,3.89622 -1.0376,2.061 -0.027,3.16045 1.4313,4.59402 1.1587,1.30733 4.0079,2.65663 4.3994,4.42206 0.061,0.27337 0,0.56002 -0.01,0.84002 -0.1284,0.28885 -0.2197,0.5973 -0.3854,0.86649 -1.1331,1.84055 -3.4547,3.33454 -5.1587,4.6155 -1.718,1.29804 -3.3724,2.72923 -4.6563,4.46801 -0.8151,1.25892 -1.1598,2.70413 -1.2159,4.1873 0.1477,1.15573 0.6744,2.2339 1.1782,3.27364 0,0 2.7058,-1.53525 2.7058,-1.53525 v 0 c -0.476,-0.996 -0.979,-2.03374 -1.0986,-3.14129 0.08,-1.43751 0.4563,-2.82075 1.2877,-4.0145 1.3054,-1.68793 2.9378,-3.0921 4.6399,-4.36819 1.6801,-1.26529 4.1349,-2.88785 5.1248,-4.78586 0.16,-0.30686 0.2253,-0.65447 0.338,-0.98171 -0.019,-0.3166 0.025,-0.64371 -0.058,-0.94983 -0.5019,-1.84896 -3.2348,-3.1238 -4.4661,-4.50897 -1.416,-1.39595 -2.2443,-2.3 -1.231,-4.26249 0.7482,-1.51736 1.8393,-3.11479 1.6746,-4.84744 -0.1155,-0.25254 -0.1961,-0.52416 -0.3465,-0.75763 -1.2417,-1.92775 -3.8256,-2.55794 -5.6061,-3.81325 -1.9395,-1.27606 -4.3549,-2.6751 -4.1876,-5.31792 0.2434,-0.77753 0.5356,-1.37112 1.0752,-1.99424 0.6273,-0.72435 1.2742,-1.11025 1.2297,-1.09273 -0.6457,0.25405 -1.2201,0.66114 -1.8302,0.99171 2.0888,-0.98018 4.227,-1.85468 6.3794,-2.68573 0,0 2.4853,-1.91569 2.4853,-1.91569 z"
         id="path174668"
         style="fill:#000000;stroke:none;stroke-width:0.499999;stroke-dasharray:3, 0.750001;stop-color:#000000" />
      <path
         d="m 1944.6495,361.4027 c -1.6354,2.13519 -3.3473,4.43347 -3.6666,7.20363 -0.075,0.65492 0.023,1.31831 0.034,1.97747 0.1547,0.64484 0.2106,1.3218 0.4643,1.9345 0.9486,2.29063 2.7846,4.23902 4.3578,6.10312 1.7556,2.08028 0.9127,1.02245 2.3856,2.95108 0.1986,0.38415 0.4541,0.74382 0.5956,1.15242 0.7075,2.04354 -0.9728,4.21206 -2.0033,5.82417 -1.5202,2.04314 -2.4742,4.10286 -2.7707,6.63175 -0.1895,1.62264 0.2359,3.22485 0.2207,4.845 -0.012,1.28066 -0.1423,1.87015 -0.3271,3.14063 -0.4521,2.8439 -1.7657,5.3858 -3.0128,7.94028 -0.8142,1.70754 -2.0799,3.12684 -2.941,4.80618 -0.08,0.20042 -0.1592,0.40082 -0.2387,0.60124 0,0 2.8358,-1.308 2.8358,-1.308 v 0 c 0.082,-0.19087 0.1633,-0.38174 0.2449,-0.57258 0.8839,-1.65103 2.1204,-3.0838 2.8973,-4.79698 1.2397,-2.57521 2.524,-5.14839 2.9444,-8.0129 0.1812,-1.30683 0.3039,-1.88333 0.3186,-3.20067 0.018,-1.60641 -0.3789,-3.19873 -0.1793,-4.80621 0.3325,-2.42424 1.3543,-4.53694 2.8094,-6.50213 1.0846,-1.74808 2.6808,-3.94682 1.8626,-6.11394 -0.1587,-0.42055 -0.4322,-0.78835 -0.6483,-1.18253 -2.1498,-2.70549 -5.4287,-5.75167 -6.698,-8.93014 -0.2378,-0.59568 -0.2879,-1.2501 -0.4318,-1.87515 0,-0.63601 -0.077,-1.27765 0.01,-1.90799 0.3693,-2.75355 2.1284,-5.03073 3.8145,-7.11589 0,0 -2.8749,1.21364 -2.8749,1.21364 z"
         id="path174670"
         style="fill:#000000;stroke:none;stroke-width:0.499999;stroke-dasharray:3, 0.750001;stop-color:#000000" />
      <path
         d="m 1876.8023,445.58598 c 1.0223,-1.82465 2.6025,-3.22403 4.2227,-4.50594 0.2635,-0.19878 0.5271,-0.39748 0.7905,-0.59634 0.4727,-0.35692 0.9168,-0.75335 1.4098,-1.0817 0.2435,-0.16216 1.0091,-0.59129 0.764,-0.43172 -1.9712,1.28323 -2.6904,1.37046 -0.9718,0.93014 0.9424,-0.11739 0.8833,-0.13194 1.7836,-0.16565 0.207,-0.008 0.7933,0.12195 0.6214,0.006 -0.9578,-0.6449 -1.4193,0.4023 1.6208,-1.41989 -3.1982,1.36856 -6.2836,2.97117 -9.395,4.52128 2.1832,0.7447 -1.7901,0.26625 -1.3603,0.48236 0.3985,0.20037 1.2819,-0.66286 1.5681,-0.85553 1.4147,-0.95242 2.0587,-1.32178 3.5396,-2.22583 0.6022,-0.36507 1.2019,-0.73462 1.8069,-1.09524 0.3007,-0.17928 -1.2285,0.65466 -0.8941,0.5511 0.5427,-0.16807 1.0178,-0.50522 1.5313,-0.74843 1.8762,-0.88868 3.0005,-1.49976 4.9656,-2.62377 -0.195,-0.10649 -0.3629,-0.32186 -0.5852,-0.31948 -0.3908,0.004 -2.0431,0.88715 -2.1948,0.97277 -2.4647,1.39014 -4.8586,2.83162 -7.2321,4.3607 -0.4516,0.30536 -0.9032,0.61074 -1.3548,0.91609 0,0 2.8318,-1.10976 2.8318,-1.10976 v 0 c 0.448,-0.30155 0.8961,-0.6031 1.3442,-0.90467 1.0318,-0.66109 2.131,-1.2219 3.1157,-1.95135 0.3344,-0.24771 -1.4909,0.72419 -1.0925,0.60388 0.438,-0.13229 0.8019,-0.44161 1.2139,-0.64055 0.2783,-0.13436 0.6123,-0.16709 0.855,-0.35841 0.1223,-0.0964 0.105,-0.29326 0.1574,-0.43989 0.8086,-0.46139 1.6292,-0.90237 2.4257,-1.3842 0.2645,-0.16002 -0.5488,0.28527 -0.8281,0.41786 -0.4134,0.19627 -0.8353,0.37438 -1.2498,0.56848 -2.6373,1.23502 -5.132,2.73923 -7.6093,4.26535 -0.9714,0.59666 -4.0982,2.35027 -4.7776,3.21649 -0.1351,0.17232 -0.1792,0.4709 -0.06,0.65434 0.2864,0.43897 1.6499,-1.07884 1.5062,-0.45159 3.0896,-1.54104 6.1358,-3.17453 9.3387,-4.47638 1.112,-0.62254 2.2908,-1.13843 3.336,-1.86759 0.661,-0.46114 0,-0.51059 -0.1219,-0.51205 -0.7822,-0.009 -1.5652,0.0569 -2.3419,0.13954 -0.3181,0.0589 -0.6615,0.0393 -0.9544,0.17674 -2.3256,1.09125 -4.4003,2.41263 -6.3671,4.02744 -1.625,1.33651 -3.249,2.78175 -4.196,4.69767 0,0 2.8374,-1.34252 2.8374,-1.34252 z"
         id="path174672"
         style="fill:#000000;stroke:none;stroke-width:0.499999;stroke-dasharray:3, 0.750001;stop-color:#000000" />
      <path
         d="m 1923.7964,478.37142 c 2.8379,0.53645 5.7222,0.0552 8.5615,-0.22357 3.1831,-0.42767 6.376,-0.75319 9.5821,-0.93956 2.5055,-0.0467 5.0005,-0.26763 7.4985,-0.44699 2.7996,-0.29427 5.4692,-1.35657 8.0778,-2.36447 3.82,-1.49252 7.3297,-3.64094 10.8181,-5.77075 1.1239,-0.64709 2.0398,-1.56835 3.0584,-2.34932 -0.1038,-0.11422 -0.1578,-0.32864 -0.3115,-0.34268 -0.3724,-0.0341 -4.097,1.99051 -4.2325,2.05705 -2.5618,1.25791 -2.5742,1.23698 -5.2166,2.42869 -4.6936,2.04502 -9.5723,3.62328 -14.5156,4.93665 -1.7283,0.45254 -3.4875,0.76343 -5.2591,0.98227 -0.7545,0.60663 -1.5803,1.13411 -2.2637,1.81988 -0.1954,0.19606 0.5101,-0.21519 0.767,-0.31814 0.4188,-0.16779 0.8411,-0.32684 1.2601,-0.49408 1.7828,-0.71152 3.5659,-1.4134 5.362,-2.091 4.4563,-1.63894 8.523,-4.09877 12.5858,-6.51743 0,0 -2.853,1.09956 -2.853,1.09956 v 0 c -0.4083,0.24304 -1.4688,0.32144 -1.2248,0.72916 0.244,0.40783 1.6569,-0.93226 1.2413,-0.70162 -2.3882,1.32543 -4.805,2.60609 -7.3818,3.53668 -1.7804,0.6666 -3.5478,1.35853 -5.3175,2.05256 -0.4074,0.15981 -0.8175,0.31277 -1.2272,0.46657 -0.2475,0.0929 -0.5243,0.12697 -0.7443,0.27345 -0.9447,0.62904 -1.8184,1.35879 -2.7276,2.03819 1.7971,-0.33399 3.6267,-0.50996 5.3861,-1.03767 4.9735,-1.32588 9.8784,-2.92487 14.6137,-4.952 2.7546,-1.23126 2.5232,-1.10278 5.1855,-2.38887 0.1993,-0.0963 3.7014,-1.69285 3.9972,-2.06745 0.07,-0.0884 -0.029,-0.22339 -0.043,-0.3351 -0.9544,0.82736 -1.9378,1.61608 -3.0122,2.28619 -2.331,1.4333 0,-0.0193 0.5028,-0.21111 0.4738,-0.17907 -0.876,0.50877 -1.3211,0.75057 -1.5387,0.83606 -3.1138,1.61412 -4.7461,2.25152 -2.5763,1.00867 -5.2219,2.04478 -7.9779,2.40313 -2.5031,0.18206 -5.0017,0.42387 -7.5128,0.46284 -3.2162,0.18828 -6.4208,0.50625 -9.6126,0.94716 -2.7916,0.27175 -5.6416,0.77589 -8.43,0.241 0,0 -2.5671,1.78869 -2.5671,1.78869 z"
         id="path174674"
         style="fill:#000000;stroke:none;stroke-width:0.499999;stroke-dasharray:3, 0.750001;stop-color:#000000" />
    </g>
    <g
       id="g62823-3-3-3"
       transform="translate(-5.7220459e-6,-3.1781006)">
      <rect
         style="fill:#000000;stroke:#000000;stroke-width:0.25;stroke-miterlimit:4;stroke-dasharray:none;stop-color:#000000"
         id="rect57043-6-6-5"
         width="4.8937645"
         height="4.8937645"
         x="102.55312"
         y="288.3031" />
      <text
         xml:space="preserve"
         style="font-style:normal;font-variant:normal;font-weight:500;font-stretch:normal;font-size:3.88056px;line-height:4.04461px;font-family:Lora;-inkscape-font-specification:'Lora Medium';letter-spacing:0px;word-spacing:0px;fill:#ffffff;stroke:none;stroke-width:0.175823px;stroke-linecap:butt;stroke-linejoin:miter;stroke-opacity:1"
         x="103.22659"
         y="292.10818"
         id="text59103-7-7-6"><tspan
           sodipodi:role="line"
           id="tspan59101-5-5-2"
           x="103.22659"
           y="292.10818"
           style="font-style:normal;font-variant:normal;font-weight:500;font-stretch:normal;font-size:3.88056px;font-family:Lora;-inkscape-font-specification:'Lora Medium';fill:#ffffff;stroke:none;stroke-width:0.175823px">19</tspan></text>
    </g>
  </g>
</svg>
